<?xml version="1.0" encoding="UTF-8"?>
<svg version="1.1" xmlns="http://www.w3.org/2000/svg" width="1080" height="602">
<path d="M0 0 C356.4 0 712.8 0 1080 0 C1080 198.66 1080 397.32 1080 602 C723.6 602 367.2 602 0 602 C0 403.34 0 204.68 0 0 Z " fill="#FEFEFE" transform="translate(0,0)"/>
<path d="M0 0 C6.6 0 13.2 0 20 0 C20 0.66 20 1.32 20 2 C23.3 2 26.6 2 30 2 C30 2.66 30 3.32 30 4 C31.98 4 33.96 4 36 4 C36 4.66 36 5.32 36 6 C37.98 6 39.96 6 42 6 C42 6.66 42 7.32 42 8 C43.32 8 44.64 8 46 8 C46 8.66 46 9.32 46 10 C47.32 10 48.64 10 50 10 C50 10.66 50 11.32 50 12 C51.32 12 52.64 12 54 12 C54 12.66 54 13.32 54 14 C54.66 14 55.32 14 56 14 C56 14.66 56 15.32 56 16 C56.66 16 57.32 16 58 16 C58 16.66 58 17.32 58 18 C58.66 18 59.32 18 60 18 C60 18.66 60 19.32 60 20 C60.66 20 61.32 20 62 20 C62 20.66 62 21.32 62 22 C63.32 22 64.64 22 66 22 C66 22.66 66 23.32 66 24 C66.66 24 67.32 24 68 24 C68 25.32 68 26.64 68 28 C68.66 28 69.32 28 70 28 C70 28.66 70 29.32 70 30 C70.66 30 71.32 30 72 30 C72 30.66 72 31.32 72 32 C72.66 32 73.32 32 74 32 C74 33.32 74 34.64 74 36 C74.66 36 75.32 36 76 36 C76 36.66 76 37.32 76 38 C76.66 38 77.32 38 78 38 C78 39.32 78 40.64 78 42 C78.66 42 79.32 42 80 42 C80 43.98 80 45.96 80 48 C80.66 48 81.32 48 82 48 C82 50.64 82 53.28 82 56 C82.66 56 83.32 56 84 56 C84 57.32 84 58.64 84 60 C84.66 60 85.32 60 86 60 C86 67.26 86 74.52 86 82 C85.34 82 84.68 82 84 82 C84 85.3 84 88.6 84 92 C83.34 92 82.68 92 82 92 C82 93.98 82 95.96 82 98 C81.34 98 80.68 98 80 98 C80 99.98 80 101.96 80 104 C79.34 104 78.68 104 78 104 C78 105.32 78 106.64 78 108 C77.34 108 76.68 108 76 108 C76 109.32 76 110.64 76 112 C75.34 112 74.68 112 74 112 C74 112.66 74 113.32 74 114 C73.34 114 72.68 114 72 114 C72 115.32 72 116.64 72 118 C71.34 118 70.68 118 70 118 C70 118.66 70 119.32 70 120 C69.34 120 68.68 120 68 120 C68 120.66 68 121.32 68 122 C67.34 122 66.68 122 66 122 C66 122.66 66 123.32 66 124 C65.34 124 64.68 124 64 124 C64 124.66 64 125.32 64 126 C63.34 126 62.68 126 62 126 C62 126.66 62 127.32 62 128 C61.34 128 60.68 128 60 128 C60 128.66 60 129.32 60 130 C59.34 130 58.68 130 58 130 C58 130.66 58 131.32 58 132 C57.34 132 56.68 132 56 132 C56 132.66 56 133.32 56 134 C54.68 134 53.36 134 52 134 C52 134.66 52 135.32 52 136 C50.68 136 49.36 136 48 136 C48 136.66 48 137.32 48 138 C47.34 138 46.68 138 46 138 C46 138.66 46 139.32 46 140 C44.02 140 42.04 140 40 140 C40 140.66 40 141.32 40 142 C38.02 142 36.04 142 34 142 C34 142.66 34 143.32 34 144 C32.02 144 30.04 144 28 144 C28 144.66 28 145.32 28 146 C17.44 146 6.88 146 -4 146 C-4 145.34 -4 144.68 -4 144 C-5.98 144 -7.96 144 -10 144 C-10 143.34 -10 142.68 -10 142 C-11.98 142 -13.96 142 -16 142 C-16 141.34 -16 140.68 -16 140 C-17.32 140 -18.64 140 -20 140 C-20 139.34 -20 138.68 -20 138 C-21.32 138 -22.64 138 -24 138 C-24 137.34 -24 136.68 -24 136 C-25.32 136 -26.64 136 -28 136 C-28 135.34 -28 134.68 -28 134 C-28.66 134 -29.32 134 -30 134 C-30 133.34 -30 132.68 -30 132 C-31.32 132 -32.64 132 -34 132 C-34 131.34 -34 130.68 -34 130 C-34.66 130 -35.32 130 -36 130 C-36 129.34 -36 128.68 -36 128 C-36.66 128 -37.32 128 -38 128 C-38 127.34 -38 126.68 -38 126 C-38.66 126 -39.32 126 -40 126 C-40 125.34 -40 124.68 -40 124 C-40.66 124 -41.32 124 -42 124 C-42 123.34 -42 122.68 -42 122 C-42.66 122 -43.32 122 -44 122 C-44 120.68 -44 119.36 -44 118 C-44.66 118 -45.32 118 -46 118 C-46 117.34 -46 116.68 -46 116 C-46.66 116 -47.32 116 -48 116 C-48 114.68 -48 113.36 -48 112 C-48.66 112 -49.32 112 -50 112 C-50 111.34 -50 110.68 -50 110 C-50.66 110 -51.32 110 -52 110 C-52 108.68 -52 107.36 -52 106 C-52.66 106 -53.32 106 -54 106 C-54 104.68 -54 103.36 -54 102 C-54.66 102 -55.32 102 -56 102 C-56 99.36 -56 96.72 -56 94 C-56.66 94 -57.32 94 -58 94 C-58 91.36 -58 88.72 -58 86 C-58.66 86 -59.32 86 -60 86 C-60 76.76 -60 67.52 -60 58 C-59.34 58 -58.68 58 -58 58 C-58 56.68 -58 55.36 -58 54 C-57.34 54 -56.68 54 -56 54 C-56 51.36 -56 48.72 -56 46 C-55.34 46 -54.68 46 -54 46 C-54 44.68 -54 43.36 -54 42 C-53.34 42 -52.68 42 -52 42 C-52 40.68 -52 39.36 -52 38 C-51.34 38 -50.68 38 -50 38 C-50 36.68 -50 35.36 -50 34 C-49.34 34 -48.68 34 -48 34 C-48 33.34 -48 32.68 -48 32 C-47.34 32 -46.68 32 -46 32 C-46 30.68 -46 29.36 -46 28 C-45.34 28 -44.68 28 -44 28 C-44 27.34 -44 26.68 -44 26 C-43.34 26 -42.68 26 -42 26 C-42 25.34 -42 24.68 -42 24 C-41.34 24 -40.68 24 -40 24 C-40 23.34 -40 22.68 -40 22 C-39.34 22 -38.68 22 -38 22 C-38 21.34 -38 20.68 -38 20 C-37.34 20 -36.68 20 -36 20 C-36 19.34 -36 18.68 -36 18 C-35.34 18 -34.68 18 -34 18 C-34 17.34 -34 16.68 -34 16 C-32.68 16 -31.36 16 -30 16 C-30 15.34 -30 14.68 -30 14 C-29.34 14 -28.68 14 -28 14 C-28 13.34 -28 12.68 -28 12 C-27.34 12 -26.68 12 -26 12 C-26 11.34 -26 10.68 -26 10 C-24.68 10 -23.36 10 -22 10 C-22 9.34 -22 8.68 -22 8 C-20.68 8 -19.36 8 -18 8 C-18 7.34 -18 6.68 -18 6 C-16.68 6 -15.36 6 -14 6 C-14 5.34 -14 4.68 -14 4 C-12.02 4 -10.04 4 -8 4 C-8 3.34 -8 2.68 -8 2 C-5.36 2 -2.72 2 0 2 C0 1.34 0 0.68 0 0 Z " fill="#050505" transform="translate(726,248)"/>
<path d="M0 0 C7.26 0 14.52 0 22 0 C22 0.66 22 1.32 22 2 C23.98 2 25.96 2 28 2 C28 2.66 28 3.32 28 4 C30.64 4 33.28 4 36 4 C36 4.66 36 5.32 36 6 C37.98 6 39.96 6 42 6 C42 6.66 42 7.32 42 8 C43.32 8 44.64 8 46 8 C46 8.66 46 9.32 46 10 C46.66 10 47.32 10 48 10 C48 10.66 48 11.32 48 12 C49.32 12 50.64 12 52 12 C52 12.66 52 13.32 52 14 C52.66 14 53.32 14 54 14 C54 14.66 54 15.32 54 16 C55.32 16 56.64 16 58 16 C58 16.66 58 17.32 58 18 C58.66 18 59.32 18 60 18 C60 18.66 60 19.32 60 20 C60.66 20 61.32 20 62 20 C62 20.66 62 21.32 62 22 C62.66 22 63.32 22 64 22 C64 22.66 64 23.32 64 24 C64.66 24 65.32 24 66 24 C66 24.66 66 25.32 66 26 C66.66 26 67.32 26 68 26 C68 26.66 68 27.32 68 28 C68.66 28 69.32 28 70 28 C70 29.32 70 30.64 70 32 C70.66 32 71.32 32 72 32 C72 32.66 72 33.32 72 34 C72.66 34 73.32 34 74 34 C74 35.32 74 36.64 74 38 C74.66 38 75.32 38 76 38 C76 39.32 76 40.64 76 42 C76.66 42 77.32 42 78 42 C78 43.32 78 44.64 78 46 C78.66 46 79.32 46 80 46 C80 47.32 80 48.64 80 50 C80.66 50 81.32 50 82 50 C82 51.98 82 53.96 82 56 C82.66 56 83.32 56 84 56 C84 67.22 84 78.44 84 90 C83.34 90 82.68 90 82 90 C82 91.98 82 93.96 82 96 C81.34 96 80.68 96 80 96 C80 97.98 80 99.96 80 102 C79.34 102 78.68 102 78 102 C78 103.32 78 104.64 78 106 C77.34 106 76.68 106 76 106 C76 107.32 76 108.64 76 110 C75.34 110 74.68 110 74 110 C74 111.32 74 112.64 74 114 C73.34 114 72.68 114 72 114 C72 114.66 72 115.32 72 116 C71.34 116 70.68 116 70 116 C70 116.66 70 117.32 70 118 C69.34 118 68.68 118 68 118 C68 118.66 68 119.32 68 120 C67.34 120 66.68 120 66 120 C66 121.32 66 122.64 66 124 C65.34 124 64.68 124 64 124 C64 124.66 64 125.32 64 126 C63.34 126 62.68 126 62 126 C62 126.66 62 127.32 62 128 C61.34 128 60.68 128 60 128 C60 128.66 60 129.32 60 130 C58.68 130 57.36 130 56 130 C56 130.66 56 131.32 56 132 C55.34 132 54.68 132 54 132 C54 132.66 54 133.32 54 134 C52.68 134 51.36 134 50 134 C50 134.66 50 135.32 50 136 C49.34 136 48.68 136 48 136 C48 136.66 48 137.32 48 138 C46.68 138 45.36 138 44 138 C44 138.66 44 139.32 44 140 C42.68 140 41.36 140 40 140 C40 140.66 40 141.32 40 142 C38.02 142 36.04 142 34 142 C34 142.66 34 143.32 34 144 C31.36 144 28.72 144 26 144 C26 144.66 26 145.32 26 146 C15.44 146 4.88 146 -6 146 C-6 145.34 -6 144.68 -6 144 C-7.32 144 -8.64 144 -10 144 C-10 143.34 -10 142.68 -10 142 C-11.98 142 -13.96 142 -16 142 C-16 141.34 -16 140.68 -16 140 C-17.98 140 -19.96 140 -22 140 C-22 139.34 -22 138.68 -22 138 C-23.32 138 -24.64 138 -26 138 C-26 137.34 -26 136.68 -26 136 C-26.66 136 -27.32 136 -28 136 C-28 135.34 -28 134.68 -28 134 C-29.32 134 -30.64 134 -32 134 C-32 133.34 -32 132.68 -32 132 C-32.66 132 -33.32 132 -34 132 C-34 131.34 -34 130.68 -34 130 C-34.66 130 -35.32 130 -36 130 C-36 129.34 -36 128.68 -36 128 C-36.66 128 -37.32 128 -38 128 C-38 127.34 -38 126.68 -38 126 C-38.66 126 -39.32 126 -40 126 C-40 125.34 -40 124.68 -40 124 C-40.66 124 -41.32 124 -42 124 C-42 123.34 -42 122.68 -42 122 C-42.66 122 -43.32 122 -44 122 C-44 121.34 -44 120.68 -44 120 C-44.66 120 -45.32 120 -46 120 C-46 119.34 -46 118.68 -46 118 C-46.66 118 -47.32 118 -48 118 C-48 116.68 -48 115.36 -48 114 C-48.66 114 -49.32 114 -50 114 C-50 113.34 -50 112.68 -50 112 C-50.66 112 -51.32 112 -52 112 C-52 110.68 -52 109.36 -52 108 C-52.66 108 -53.32 108 -54 108 C-54 106.68 -54 105.36 -54 104 C-54.66 104 -55.32 104 -56 104 C-56 102.02 -56 100.04 -56 98 C-56.66 98 -57.32 98 -58 98 C-58 95.36 -58 92.72 -58 90 C-58.66 90 -59.32 90 -60 90 C-60 78.12 -60 66.24 -60 54 C-59.34 54 -58.68 54 -58 54 C-58 52.02 -58 50.04 -58 48 C-57.34 48 -56.68 48 -56 48 C-56 46.68 -56 45.36 -56 44 C-55.34 44 -54.68 44 -54 44 C-54 42.68 -54 41.36 -54 40 C-53.34 40 -52.68 40 -52 40 C-52 38.68 -52 37.36 -52 36 C-51.34 36 -50.68 36 -50 36 C-50 35.34 -50 34.68 -50 34 C-49.34 34 -48.68 34 -48 34 C-48 32.68 -48 31.36 -48 30 C-47.34 30 -46.68 30 -46 30 C-46 29.34 -46 28.68 -46 28 C-45.34 28 -44.68 28 -44 28 C-44 26.68 -44 25.36 -44 24 C-43.34 24 -42.68 24 -42 24 C-42 23.34 -42 22.68 -42 22 C-40.68 22 -39.36 22 -38 22 C-38 21.34 -38 20.68 -38 20 C-37.34 20 -36.68 20 -36 20 C-36 19.34 -36 18.68 -36 18 C-35.34 18 -34.68 18 -34 18 C-34 17.34 -34 16.68 -34 16 C-33.34 16 -32.68 16 -32 16 C-32 15.34 -32 14.68 -32 14 C-31.34 14 -30.68 14 -30 14 C-30 13.34 -30 12.68 -30 12 C-28.68 12 -27.36 12 -26 12 C-26 11.34 -26 10.68 -26 10 C-24.68 10 -23.36 10 -22 10 C-22 9.34 -22 8.68 -22 8 C-20.68 8 -19.36 8 -18 8 C-18 7.34 -18 6.68 -18 6 C-16.68 6 -15.36 6 -14 6 C-14 5.34 -14 4.68 -14 4 C-12.02 4 -10.04 4 -8 4 C-8 3.34 -8 2.68 -8 2 C-5.36 2 -2.72 2 0 2 C0 1.34 0 0.68 0 0 Z " fill="#050505" transform="translate(256,248)"/>
<path d="M0 0 C19.14 0 38.28 0 58 0 C58 0.66 58 1.32 58 2 C61.3 2 64.6 2 68 2 C68 2.66 68 3.32 68 4 C69.32 4 70.64 4 72 4 C72 4.66 72 5.32 72 6 C73.98 6 75.96 6 78 6 C78 6.66 78 7.32 78 8 C79.32 8 80.64 8 82 8 C82 8.66 82 9.32 82 10 C83.32 10 84.64 10 86 10 C86 10.66 86 11.32 86 12 C86.66 12 87.32 12 88 12 C88 12.66 88 13.32 88 14 C89.32 14 90.64 14 92 14 C92 14.66 92 15.32 92 16 C92.66 16 93.32 16 94 16 C94 16.66 94 17.32 94 18 C94.66 18 95.32 18 96 18 C96 18.66 96 19.32 96 20 C96.66 20 97.32 20 98 20 C98 20.66 98 21.32 98 22 C98.66 22 99.32 22 100 22 C100 22.66 100 23.32 100 24 C100.66 24 101.32 24 102 24 C102 24.66 102 25.32 102 26 C102.66 26 103.32 26 104 26 C104 26.66 104 27.32 104 28 C104.66 28 105.32 28 106 28 C106 29.32 106 30.64 106 32 C106.66 32 107.32 32 108 32 C108 32.66 108 33.32 108 34 C108.66 34 109.32 34 110 34 C110 35.32 110 36.64 110 38 C110.66 38 111.32 38 112 38 C112 39.32 112 40.64 112 42 C112.66 42 113.32 42 114 42 C114 43.32 114 44.64 114 46 C114.66 46 115.32 46 116 46 C116 47.98 116 49.96 116 52 C116.66 52 117.32 52 118 52 C118 54.64 118 57.28 118 60 C118.66 60 119.32 60 120 60 C120 66.6 120 73.2 120 80 C119.34 80 118.68 80 118 80 C118 82.64 118 85.28 118 88 C117.34 88 116.68 88 116 88 C116 89.98 116 91.96 116 94 C115.34 94 114.68 94 114 94 C114 95.98 114 97.96 114 100 C113.34 100 112.68 100 112 100 C112 101.32 112 102.64 112 104 C111.34 104 110.68 104 110 104 C110 105.32 110 106.64 110 108 C109.34 108 108.68 108 108 108 C108 109.32 108 110.64 108 112 C107.34 112 106.68 112 106 112 C106 112.66 106 113.32 106 114 C105.34 114 104.68 114 104 114 C104 114.66 104 115.32 104 116 C103.34 116 102.68 116 102 116 C102 116.66 102 117.32 102 118 C101.34 118 100.68 118 100 118 C100 118.66 100 119.32 100 120 C99.34 120 98.68 120 98 120 C98 120.66 98 121.32 98 122 C97.34 122 96.68 122 96 122 C96 122.66 96 123.32 96 124 C95.34 124 94.68 124 94 124 C94 124.66 94 125.32 94 126 C93.34 126 92.68 126 92 126 C92 126.66 92 127.32 92 128 C91.34 128 90.68 128 90 128 C90 128.66 90 129.32 90 130 C88.68 130 87.36 130 86 130 C86 130.66 86 131.32 86 132 C85.34 132 84.68 132 84 132 C84 132.66 84 133.32 84 134 C82.68 134 81.36 134 80 134 C80 134.66 80 135.32 80 136 C78.02 136 76.04 136 74 136 C74 136.66 74 137.32 74 138 C72.68 138 71.36 138 70 138 C70 138.66 70 139.32 70 140 C68.02 140 66.04 140 64 140 C64 140.66 64 141.32 64 142 C42.22 142 20.44 142 -2 142 C-2 141.34 -2 140.68 -2 140 C-2.66 140 -3.32 140 -4 140 C-4 95.12 -4 50.24 -4 4 C-3.34 4 -2.68 4 -2 4 C-2 3.34 -2 2.68 -2 2 C-1.34 2 -0.68 2 0 2 C0 1.34 0 0.68 0 0 Z " fill="#040404" transform="translate(524,250)"/>
<path d="M0 0 C24.42 0 48.84 0 74 0 C74 0.66 74 1.32 74 2 C75.32 2 76.64 2 78 2 C78 2.66 78 3.32 78 4 C79.98 4 81.96 4 84 4 C84 4.66 84 5.32 84 6 C85.32 6 86.64 6 88 6 C88 6.66 88 7.32 88 8 C89.32 8 90.64 8 92 8 C92 8.66 92 9.32 92 10 C92.66 10 93.32 10 94 10 C94 10.66 94 11.32 94 12 C94.66 12 95.32 12 96 12 C96 12.66 96 13.32 96 14 C96.66 14 97.32 14 98 14 C98 14.66 98 15.32 98 16 C98.66 16 99.32 16 100 16 C100 16.66 100 17.32 100 18 C100.66 18 101.32 18 102 18 C102 18.66 102 19.32 102 20 C102.66 20 103.32 20 104 20 C104 21.32 104 22.64 104 24 C104.66 24 105.32 24 106 24 C106 25.32 106 26.64 106 28 C106.66 28 107.32 28 108 28 C108 29.32 108 30.64 108 32 C108.66 32 109.32 32 110 32 C110 40.58 110 49.16 110 58 C109.34 58 108.68 58 108 58 C108 59.32 108 60.64 108 62 C107.34 62 106.68 62 106 62 C106 63.32 106 64.64 106 66 C105.34 66 104.68 66 104 66 C104 67.32 104 68.64 104 70 C103.34 70 102.68 70 102 70 C102 70.66 102 71.32 102 72 C101.34 72 100.68 72 100 72 C100 72.66 100 73.32 100 74 C99.34 74 98.68 74 98 74 C98 74.66 98 75.32 98 76 C97.34 76 96.68 76 96 76 C96 76.66 96 77.32 96 78 C95.34 78 94.68 78 94 78 C94 78.66 94 79.32 94 80 C93.34 80 92.68 80 92 80 C92 80.66 92 81.32 92 82 C90.68 82 89.36 82 88 82 C88 82.66 88 83.32 88 84 C86.68 84 85.36 84 84 84 C84 85.98 84 87.96 84 90 C84.66 90 85.32 90 86 90 C86 91.32 86 92.64 86 94 C86.66 94 87.32 94 88 94 C88 95.32 88 96.64 88 98 C88.66 98 89.32 98 90 98 C90 98.66 90 99.32 90 100 C90.66 100 91.32 100 92 100 C92 101.32 92 102.64 92 104 C92.66 104 93.32 104 94 104 C94 105.32 94 106.64 94 108 C94.66 108 95.32 108 96 108 C96 109.32 96 110.64 96 112 C96.66 112 97.32 112 98 112 C98 113.32 98 114.64 98 116 C98.66 116 99.32 116 100 116 C100 116.66 100 117.32 100 118 C100.66 118 101.32 118 102 118 C102 119.32 102 120.64 102 122 C102.66 122 103.32 122 104 122 C104 123.32 104 124.64 104 126 C104.66 126 105.32 126 106 126 C106 127.32 106 128.64 106 130 C106.66 130 107.32 130 108 130 C108 133.3 108 136.6 108 140 C107.34 140 106.68 140 106 140 C106 140.66 106 141.32 106 142 C96.1 142 86.2 142 76 142 C76 140.68 76 139.36 76 138 C75.34 138 74.68 138 74 138 C74 136.68 74 135.36 74 134 C73.34 134 72.68 134 72 134 C72 132.68 72 131.36 72 130 C71.34 130 70.68 130 70 130 C70 128.68 70 127.36 70 126 C69.34 126 68.68 126 68 126 C68 125.34 68 124.68 68 124 C67.34 124 66.68 124 66 124 C66 122.68 66 121.36 66 120 C65.34 120 64.68 120 64 120 C64 118.68 64 117.36 64 116 C63.34 116 62.68 116 62 116 C62 114.68 62 113.36 62 112 C61.34 112 60.68 112 60 112 C60 110.68 60 109.36 60 108 C59.34 108 58.68 108 58 108 C58 106.68 58 105.36 58 104 C57.34 104 56.68 104 56 104 C56 102.68 56 101.36 56 100 C55.34 100 54.68 100 54 100 C54 98.68 54 97.36 54 96 C53.34 96 52.68 96 52 96 C52 94.68 52 93.36 52 92 C51.34 92 50.68 92 50 92 C50 91.34 50 90.68 50 90 C42.08 90 34.16 90 26 90 C26 106.5 26 123 26 140 C25.34 140 24.68 140 24 140 C24 140.66 24 141.32 24 142 C15.42 142 6.84 142 -2 142 C-2 141.34 -2 140.68 -2 140 C-2.66 140 -3.32 140 -4 140 C-4 94.46 -4 48.92 -4 2 C-2.68 2 -1.36 2 0 2 C0 1.34 0 0.68 0 0 Z " fill="#040404" transform="translate(376,250)"/>
<path d="M0 0 C3.3 0 6.6 0 10 0 C10 0.66 10 1.32 10 2 C10.66 2 11.32 2 12 2 C12 2.66 12 3.32 12 4 C12.66 4 13.32 4 14 4 C14 5.32 14 6.64 14 8 C14.66 8 15.32 8 16 8 C16 9.32 16 10.64 16 12 C16.66 12 17.32 12 18 12 C18 13.32 18 14.64 18 16 C18.66 16 19.32 16 20 16 C20 17.98 20 19.96 20 22 C20.66 22 21.32 22 22 22 C22 23.32 22 24.64 22 26 C22.66 26 23.32 26 24 26 C24 27.32 24 28.64 24 30 C24.66 30 25.32 30 26 30 C26 31.32 26 32.64 26 34 C26.66 34 27.32 34 28 34 C28 35.32 28 36.64 28 38 C28.66 38 29.32 38 30 38 C30 39.98 30 41.96 30 44 C30.66 44 31.32 44 32 44 C32 45.32 32 46.64 32 48 C32.66 48 33.32 48 34 48 C34 49.32 34 50.64 34 52 C34.66 52 35.32 52 36 52 C36 53.32 36 54.64 36 56 C36.66 56 37.32 56 38 56 C38 57.32 38 58.64 38 60 C38.66 60 39.32 60 40 60 C40 61.98 40 63.96 40 66 C40.66 66 41.32 66 42 66 C42 67.32 42 68.64 42 70 C42.66 70 43.32 70 44 70 C44 71.32 44 72.64 44 74 C44.66 74 45.32 74 46 74 C46 75.32 46 76.64 46 78 C46.66 78 47.32 78 48 78 C48 79.32 48 80.64 48 82 C48.66 82 49.32 82 50 82 C50 83.32 50 84.64 50 86 C50.66 86 51.32 86 52 86 C52 87.98 52 89.96 52 92 C52.66 92 53.32 92 54 92 C54 93.32 54 94.64 54 96 C54.66 96 55.32 96 56 96 C56 97.32 56 98.64 56 100 C56.66 100 57.32 100 58 100 C58 101.32 58 102.64 58 104 C58.66 104 59.32 104 60 104 C60 105.32 60 106.64 60 108 C60.66 108 61.32 108 62 108 C62 109.98 62 111.96 62 114 C62.66 114 63.32 114 64 114 C64 115.32 64 116.64 64 118 C64.66 118 65.32 118 66 118 C66 119.32 66 120.64 66 122 C66.66 122 67.32 122 68 122 C68 123.32 68 124.64 68 126 C68.66 126 69.32 126 70 126 C70 127.32 70 128.64 70 130 C70.66 130 71.32 130 72 130 C72 133.3 72 136.6 72 140 C71.34 140 70.68 140 70 140 C70 140.66 70 141.32 70 142 C61.42 142 52.84 142 44 142 C44 141.34 44 140.68 44 140 C43.34 140 42.68 140 42 140 C42 139.34 42 138.68 42 138 C41.34 138 40.68 138 40 138 C40 136.02 40 134.04 40 132 C39.34 132 38.68 132 38 132 C38 130.68 38 129.36 38 128 C37.34 128 36.68 128 36 128 C36 126.68 36 125.36 36 124 C35.34 124 34.68 124 34 124 C34 122.68 34 121.36 34 120 C33.34 120 32.68 120 32 120 C32 119.34 32 118.68 32 118 C14.18 118 -3.64 118 -22 118 C-22 118.66 -22 119.32 -22 120 C-22.66 120 -23.32 120 -24 120 C-24 121.32 -24 122.64 -24 124 C-24.66 124 -25.32 124 -26 124 C-26 125.32 -26 126.64 -26 128 C-26.66 128 -27.32 128 -28 128 C-28 129.32 -28 130.64 -28 132 C-28.66 132 -29.32 132 -30 132 C-30 133.98 -30 135.96 -30 138 C-30.66 138 -31.32 138 -32 138 C-32 138.66 -32 139.32 -32 140 C-32.66 140 -33.32 140 -34 140 C-34 140.66 -34 141.32 -34 142 C-42.58 142 -51.16 142 -60 142 C-60 141.34 -60 140.68 -60 140 C-60.66 140 -61.32 140 -62 140 C-62 136.7 -62 133.4 -62 130 C-61.34 130 -60.68 130 -60 130 C-60 128.68 -60 127.36 -60 126 C-59.34 126 -58.68 126 -58 126 C-58 124.68 -58 123.36 -58 122 C-57.34 122 -56.68 122 -56 122 C-56 120.02 -56 118.04 -56 116 C-55.34 116 -54.68 116 -54 116 C-54 114.68 -54 113.36 -54 112 C-53.34 112 -52.68 112 -52 112 C-52 110.68 -52 109.36 -52 108 C-51.34 108 -50.68 108 -50 108 C-50 106.68 -50 105.36 -50 104 C-49.34 104 -48.68 104 -48 104 C-48 102.68 -48 101.36 -48 100 C-47.34 100 -46.68 100 -46 100 C-46 98.68 -46 97.36 -46 96 C-45.34 96 -44.68 96 -44 96 C-44 94.02 -44 92.04 -44 90 C-43.34 90 -42.68 90 -42 90 C-42 88.68 -42 87.36 -42 86 C-41.34 86 -40.68 86 -40 86 C-40 84.68 -40 83.36 -40 82 C-39.34 82 -38.68 82 -38 82 C-38 80.68 -38 79.36 -38 78 C-37.34 78 -36.68 78 -36 78 C-36 76.68 -36 75.36 -36 74 C-35.34 74 -34.68 74 -34 74 C-34 72.68 -34 71.36 -34 70 C-33.34 70 -32.68 70 -32 70 C-32 68.68 -32 67.36 -32 66 C-31.34 66 -30.68 66 -30 66 C-30 64.02 -30 62.04 -30 60 C-29.34 60 -28.68 60 -28 60 C-28 58.68 -28 57.36 -28 56 C-27.34 56 -26.68 56 -26 56 C-26 54.68 -26 53.36 -26 52 C-25.34 52 -24.68 52 -24 52 C-24 50.68 -24 49.36 -24 48 C-23.34 48 -22.68 48 -22 48 C-22 46.68 -22 45.36 -22 44 C-21.34 44 -20.68 44 -20 44 C-20 42.02 -20 40.04 -20 38 C-19.34 38 -18.68 38 -18 38 C-18 36.68 -18 35.36 -18 34 C-17.34 34 -16.68 34 -16 34 C-16 32.68 -16 31.36 -16 30 C-15.34 30 -14.68 30 -14 30 C-14 28.68 -14 27.36 -14 26 C-13.34 26 -12.68 26 -12 26 C-12 24.68 -12 23.36 -12 22 C-11.34 22 -10.68 22 -10 22 C-10 20.68 -10 19.36 -10 18 C-9.34 18 -8.68 18 -8 18 C-8 16.68 -8 15.36 -8 14 C-7.34 14 -6.68 14 -6 14 C-6 12.68 -6 11.36 -6 10 C-5.34 10 -4.68 10 -4 10 C-4 8.02 -4 6.04 -4 4 C-3.34 4 -2.68 4 -2 4 C-2 3.34 -2 2.68 -2 2 C-1.34 2 -0.68 2 0 2 C0 1.34 0 0.68 0 0 Z " fill="#050505" transform="translate(1000,250)"/>
<path d="M0 0 C11.88 0 23.76 0 36 0 C36 0.66 36 1.32 36 2 C38.64 2 41.28 2 44 2 C44 2.66 44 3.32 44 4 C45.32 4 46.64 4 48 4 C48 4.66 48 5.32 48 6 C49.98 6 51.96 6 54 6 C54 6.66 54 7.32 54 8 C54.66 8 55.32 8 56 8 C56 8.66 56 9.32 56 10 C57.32 10 58.64 10 60 10 C60 10.66 60 11.32 60 12 C60.66 12 61.32 12 62 12 C62 12.66 62 13.32 62 14 C62.66 14 63.32 14 64 14 C64 14.66 64 15.32 64 16 C65.32 16 66.64 16 68 16 C68 16.66 68 17.32 68 18 C68.66 18 69.32 18 70 18 C70 20.64 70 23.28 70 26 C69.34 26 68.68 26 68 26 C68 26.66 68 27.32 68 28 C67.34 28 66.68 28 66 28 C66 29.32 66 30.64 66 32 C65.34 32 64.68 32 64 32 C64 32.66 64 33.32 64 34 C63.34 34 62.68 34 62 34 C62 34.66 62 35.32 62 36 C61.34 36 60.68 36 60 36 C60 36.66 60 37.32 60 38 C59.34 38 58.68 38 58 38 C58 38.66 58 39.32 58 40 C57.34 40 56.68 40 56 40 C56 40.66 56 41.32 56 42 C53.36 42 50.72 42 48 42 C48 41.34 48 40.68 48 40 C47.34 40 46.68 40 46 40 C46 39.34 46 38.68 46 38 C44.68 38 43.36 38 42 38 C42 37.34 42 36.68 42 36 C41.34 36 40.68 36 40 36 C40 35.34 40 34.68 40 34 C38.68 34 37.36 34 36 34 C36 33.34 36 32.68 36 32 C34.68 32 33.36 32 32 32 C32 31.34 32 30.68 32 30 C24.08 30 16.16 30 8 30 C8 30.66 8 31.32 8 32 C6.02 32 4.04 32 2 32 C2 32.66 2 33.32 2 34 C1.34 34 0.68 34 0 34 C0 34.66 0 35.32 0 36 C-1.32 36 -2.64 36 -4 36 C-4 36.66 -4 37.32 -4 38 C-4.66 38 -5.32 38 -6 38 C-6 38.66 -6 39.32 -6 40 C-6.66 40 -7.32 40 -8 40 C-8 40.66 -8 41.32 -8 42 C-8.66 42 -9.32 42 -10 42 C-10 42.66 -10 43.32 -10 44 C-10.66 44 -11.32 44 -12 44 C-12 44.66 -12 45.32 -12 46 C-12.66 46 -13.32 46 -14 46 C-14 47.32 -14 48.64 -14 50 C-14.66 50 -15.32 50 -16 50 C-16 51.32 -16 52.64 -16 54 C-16.66 54 -17.32 54 -18 54 C-18 55.32 -18 56.64 -18 58 C-18.66 58 -19.32 58 -20 58 C-20 66.58 -20 75.16 -20 84 C-19.34 84 -18.68 84 -18 84 C-18 85.32 -18 86.64 -18 88 C-17.34 88 -16.68 88 -16 88 C-16 89.32 -16 90.64 -16 92 C-15.34 92 -14.68 92 -14 92 C-14 93.32 -14 94.64 -14 96 C-13.34 96 -12.68 96 -12 96 C-12 96.66 -12 97.32 -12 98 C-11.34 98 -10.68 98 -10 98 C-10 99.32 -10 100.64 -10 102 C-9.34 102 -8.68 102 -8 102 C-8 102.66 -8 103.32 -8 104 C-6.68 104 -5.36 104 -4 104 C-4 104.66 -4 105.32 -4 106 C-3.34 106 -2.68 106 -2 106 C-2 106.66 -2 107.32 -2 108 C-0.68 108 0.64 108 2 108 C2 108.66 2 109.32 2 110 C3.32 110 4.64 110 6 110 C6 110.66 6 111.32 6 112 C14.58 112 23.16 112 32 112 C32 111.34 32 110.68 32 110 C33.32 110 34.64 110 36 110 C36 109.34 36 108.68 36 108 C37.32 108 38.64 108 40 108 C40 107.34 40 106.68 40 106 C41.32 106 42.64 106 44 106 C44 105.34 44 104.68 44 104 C44.66 104 45.32 104 46 104 C46 103.34 46 102.68 46 102 C47.32 102 48.64 102 50 102 C50 101.34 50 100.68 50 100 C51.32 100 52.64 100 54 100 C54 100.66 54 101.32 54 102 C54.66 102 55.32 102 56 102 C56 102.66 56 103.32 56 104 C56.66 104 57.32 104 58 104 C58 104.66 58 105.32 58 106 C58.66 106 59.32 106 60 106 C60 106.66 60 107.32 60 108 C60.66 108 61.32 108 62 108 C62 108.66 62 109.32 62 110 C62.66 110 63.32 110 64 110 C64 110.66 64 111.32 64 112 C64.66 112 65.32 112 66 112 C66 112.66 66 113.32 66 114 C66.66 114 67.32 114 68 114 C68 114.66 68 115.32 68 116 C68.66 116 69.32 116 70 116 C70 118.64 70 121.28 70 124 C69.34 124 68.68 124 68 124 C68 124.66 68 125.32 68 126 C67.34 126 66.68 126 66 126 C66 126.66 66 127.32 66 128 C65.34 128 64.68 128 64 128 C64 128.66 64 129.32 64 130 C63.34 130 62.68 130 62 130 C62 130.66 62 131.32 62 132 C60.68 132 59.36 132 58 132 C58 132.66 58 133.32 58 134 C57.34 134 56.68 134 56 134 C56 134.66 56 135.32 56 136 C54.68 136 53.36 136 52 136 C52 136.66 52 137.32 52 138 C50.02 138 48.04 138 46 138 C46 138.66 46 139.32 46 140 C44.68 140 43.36 140 42 140 C42 140.66 42 141.32 42 142 C40.02 142 38.04 142 36 142 C36 142.66 36 143.32 36 144 C24.12 144 12.24 144 0 144 C0 143.34 0 142.68 0 142 C-1.98 142 -3.96 142 -6 142 C-6 141.34 -6 140.68 -6 140 C-7.32 140 -8.64 140 -10 140 C-10 139.34 -10 138.68 -10 138 C-11.32 138 -12.64 138 -14 138 C-14 137.34 -14 136.68 -14 136 C-15.32 136 -16.64 136 -18 136 C-18 135.34 -18 134.68 -18 134 C-19.32 134 -20.64 134 -22 134 C-22 133.34 -22 132.68 -22 132 C-22.66 132 -23.32 132 -24 132 C-24 131.34 -24 130.68 -24 130 C-25.32 130 -26.64 130 -28 130 C-28 129.34 -28 128.68 -28 128 C-28.66 128 -29.32 128 -30 128 C-30 127.34 -30 126.68 -30 126 C-30.66 126 -31.32 126 -32 126 C-32 125.34 -32 124.68 -32 124 C-32.66 124 -33.32 124 -34 124 C-34 123.34 -34 122.68 -34 122 C-34.66 122 -35.32 122 -36 122 C-36 121.34 -36 120.68 -36 120 C-36.66 120 -37.32 120 -38 120 C-38 118.68 -38 117.36 -38 116 C-38.66 116 -39.32 116 -40 116 C-40 115.34 -40 114.68 -40 114 C-40.66 114 -41.32 114 -42 114 C-42 112.68 -42 111.36 -42 110 C-42.66 110 -43.32 110 -44 110 C-44 109.34 -44 108.68 -44 108 C-44.66 108 -45.32 108 -46 108 C-46 106.68 -46 105.36 -46 104 C-46.66 104 -47.32 104 -48 104 C-48 102.68 -48 101.36 -48 100 C-48.66 100 -49.32 100 -50 100 C-50 98.02 -50 96.04 -50 94 C-50.66 94 -51.32 94 -52 94 C-52 90.7 -52 87.4 -52 84 C-52.66 84 -53.32 84 -54 84 C-54 74.76 -54 65.52 -54 56 C-53.34 56 -52.68 56 -52 56 C-52 54.02 -52 52.04 -52 50 C-51.34 50 -50.68 50 -50 50 C-50 48.02 -50 46.04 -50 44 C-49.34 44 -48.68 44 -48 44 C-48 42.68 -48 41.36 -48 40 C-47.34 40 -46.68 40 -46 40 C-46 38.68 -46 37.36 -46 36 C-45.34 36 -44.68 36 -44 36 C-44 35.34 -44 34.68 -44 34 C-43.34 34 -42.68 34 -42 34 C-42 32.68 -42 31.36 -42 30 C-41.34 30 -40.68 30 -40 30 C-40 29.34 -40 28.68 -40 28 C-39.34 28 -38.68 28 -38 28 C-38 26.68 -38 25.36 -38 24 C-37.34 24 -36.68 24 -36 24 C-36 23.34 -36 22.68 -36 22 C-35.34 22 -34.68 22 -34 22 C-34 21.34 -34 20.68 -34 20 C-33.34 20 -32.68 20 -32 20 C-32 19.34 -32 18.68 -32 18 C-30.68 18 -29.36 18 -28 18 C-28 17.34 -28 16.68 -28 16 C-27.34 16 -26.68 16 -26 16 C-26 15.34 -26 14.68 -26 14 C-25.34 14 -24.68 14 -24 14 C-24 13.34 -24 12.68 -24 12 C-23.34 12 -22.68 12 -22 12 C-22 11.34 -22 10.68 -22 10 C-20.68 10 -19.36 10 -18 10 C-18 9.34 -18 8.68 -18 8 C-16.68 8 -15.36 8 -14 8 C-14 7.34 -14 6.68 -14 6 C-13.34 6 -12.68 6 -12 6 C-12 5.34 -12 4.68 -12 4 C-10.02 4 -8.04 4 -6 4 C-6 3.34 -6 2.68 -6 2 C-4.02 2 -2.04 2 0 2 C0 1.34 0 0.68 0 0 Z " fill="#060606" transform="translate(110,250)"/>
<path d="M0 0 C8.58 0 17.16 0 26 0 C26 0.66 26 1.32 26 2 C26.66 2 27.32 2 28 2 C28 2.66 28 3.32 28 4 C28.66 4 29.32 4 30 4 C30 5.32 30 6.64 30 8 C30.66 8 31.32 8 32 8 C32 9.32 32 10.64 32 12 C32.66 12 33.32 12 34 12 C34 13.32 34 14.64 34 16 C34.66 16 35.32 16 36 16 C36 17.98 36 19.96 36 22 C36.66 22 37.32 22 38 22 C38 23.32 38 24.64 38 26 C38.66 26 39.32 26 40 26 C40 27.32 40 28.64 40 30 C40.66 30 41.32 30 42 30 C42 31.32 42 32.64 42 34 C42.66 34 43.32 34 44 34 C44 35.32 44 36.64 44 38 C44.66 38 45.32 38 46 38 C46 39.98 46 41.96 46 44 C46.66 44 47.32 44 48 44 C48 45.32 48 46.64 48 48 C48.66 48 49.32 48 50 48 C50 49.32 50 50.64 50 52 C50.66 52 51.32 52 52 52 C52 53.98 52 55.96 52 58 C52.66 58 53.32 58 54 58 C54 59.32 54 60.64 54 62 C54.66 62 55.32 62 56 62 C56 63.32 56 64.64 56 66 C56.66 66 57.32 66 58 66 C58 67.32 58 68.64 58 70 C58.66 70 59.32 70 60 70 C60 71.98 60 73.96 60 76 C60.66 76 61.32 76 62 76 C62 77.32 62 78.64 62 80 C62.66 80 63.32 80 64 80 C64 80.66 64 81.32 64 82 C64.66 82 65.32 82 66 82 C66 80.02 66 78.04 66 76 C66.66 76 67.32 76 68 76 C68 74.68 68 73.36 68 72 C68.66 72 69.32 72 70 72 C70 70.68 70 69.36 70 68 C70.66 68 71.32 68 72 68 C72 66.68 72 65.36 72 64 C72.66 64 73.32 64 74 64 C74 62.02 74 60.04 74 58 C74.66 58 75.32 58 76 58 C76 56.68 76 55.36 76 54 C76.66 54 77.32 54 78 54 C78 52.68 78 51.36 78 50 C78.66 50 79.32 50 80 50 C80 48.68 80 47.36 80 46 C80.66 46 81.32 46 82 46 C82 44.68 82 43.36 82 42 C82.66 42 83.32 42 84 42 C84 40.02 84 38.04 84 36 C84.66 36 85.32 36 86 36 C86 34.68 86 33.36 86 32 C86.66 32 87.32 32 88 32 C88 30.68 88 29.36 88 28 C88.66 28 89.32 28 90 28 C90 26.02 90 24.04 90 22 C90.66 22 91.32 22 92 22 C92 20.68 92 19.36 92 18 C92.66 18 93.32 18 94 18 C94 16.68 94 15.36 94 14 C94.66 14 95.32 14 96 14 C96 12.68 96 11.36 96 10 C96.66 10 97.32 10 98 10 C98 8.02 98 6.04 98 4 C98.66 4 99.32 4 100 4 C100 3.34 100 2.68 100 2 C100.66 2 101.32 2 102 2 C102 1.34 102 0.68 102 0 C110.58 0 119.16 0 128 0 C128 0.66 128 1.32 128 2 C128.66 2 129.32 2 130 2 C130 2.66 130 3.32 130 4 C130.66 4 131.32 4 132 4 C132 6.64 132 9.28 132 12 C131.34 12 130.68 12 130 12 C130 13.32 130 14.64 130 16 C129.34 16 128.68 16 128 16 C128 17.32 128 18.64 128 20 C127.34 20 126.68 20 126 20 C126 21.32 126 22.64 126 24 C125.34 24 124.68 24 124 24 C124 25.98 124 27.96 124 30 C123.34 30 122.68 30 122 30 C122 31.32 122 32.64 122 34 C121.34 34 120.68 34 120 34 C120 35.32 120 36.64 120 38 C119.34 38 118.68 38 118 38 C118 39.32 118 40.64 118 42 C117.34 42 116.68 42 116 42 C116 43.32 116 44.64 116 46 C115.34 46 114.68 46 114 46 C114 47.32 114 48.64 114 50 C113.34 50 112.68 50 112 50 C112 51.32 112 52.64 112 54 C111.34 54 110.68 54 110 54 C110 55.98 110 57.96 110 60 C109.34 60 108.68 60 108 60 C108 61.32 108 62.64 108 64 C107.34 64 106.68 64 106 64 C106 65.32 106 66.64 106 68 C105.34 68 104.68 68 104 68 C104 69.32 104 70.64 104 72 C103.34 72 102.68 72 102 72 C102 73.32 102 74.64 102 76 C101.34 76 100.68 76 100 76 C100 77.32 100 78.64 100 80 C99.34 80 98.68 80 98 80 C98 81.32 98 82.64 98 84 C97.34 84 96.68 84 96 84 C96 85.98 96 87.96 96 90 C95.34 90 94.68 90 94 90 C94 91.32 94 92.64 94 94 C93.34 94 92.68 94 92 94 C92 95.32 92 96.64 92 98 C91.34 98 90.68 98 90 98 C90 99.32 90 100.64 90 102 C89.34 102 88.68 102 88 102 C88 103.32 88 104.64 88 106 C87.34 106 86.68 106 86 106 C86 107.98 86 109.96 86 112 C85.34 112 84.68 112 84 112 C84 113.32 84 114.64 84 116 C83.34 116 82.68 116 82 116 C82 117.32 82 118.64 82 120 C81.34 120 80.68 120 80 120 C80 121.32 80 122.64 80 124 C79.34 124 78.68 124 78 124 C78 125.32 78 126.64 78 128 C77.34 128 76.68 128 76 128 C76 129.98 76 131.96 76 134 C75.34 134 74.68 134 74 134 C74 135.32 74 136.64 74 138 C73.34 138 72.68 138 72 138 C72 139.32 72 140.64 72 142 C71.34 142 70.68 142 70 142 C70 142.66 70 143.32 70 144 C66.7 144 63.4 144 60 144 C60 143.34 60 142.68 60 142 C59.34 142 58.68 142 58 142 C58 141.34 58 140.68 58 140 C57.34 140 56.68 140 56 140 C56 138.02 56 136.04 56 134 C55.34 134 54.68 134 54 134 C54 133.34 54 132.68 54 132 C53.34 132 52.68 132 52 132 C52 130.02 52 128.04 52 126 C51.34 126 50.68 126 50 126 C50 124.68 50 123.36 50 122 C49.34 122 48.68 122 48 122 C48 120.68 48 119.36 48 118 C47.34 118 46.68 118 46 118 C46 116.68 46 115.36 46 114 C45.34 114 44.68 114 44 114 C44 112.68 44 111.36 44 110 C43.34 110 42.68 110 42 110 C42 108.02 42 106.04 42 104 C41.34 104 40.68 104 40 104 C40 102.68 40 101.36 40 100 C39.34 100 38.68 100 38 100 C38 98.68 38 97.36 38 96 C37.34 96 36.68 96 36 96 C36 94.68 36 93.36 36 92 C35.34 92 34.68 92 34 92 C34 90.68 34 89.36 34 88 C33.34 88 32.68 88 32 88 C32 86.68 32 85.36 32 84 C31.34 84 30.68 84 30 84 C30 82.02 30 80.04 30 78 C29.34 78 28.68 78 28 78 C28 76.68 28 75.36 28 74 C27.34 74 26.68 74 26 74 C26 72.68 26 71.36 26 70 C25.34 70 24.68 70 24 70 C24 68.68 24 67.36 24 66 C23.34 66 22.68 66 22 66 C22 64.68 22 63.36 22 62 C21.34 62 20.68 62 20 62 C20 60.68 20 59.36 20 58 C19.34 58 18.68 58 18 58 C18 56.02 18 54.04 18 52 C17.34 52 16.68 52 16 52 C16 50.68 16 49.36 16 48 C15.34 48 14.68 48 14 48 C14 46.68 14 45.36 14 44 C13.34 44 12.68 44 12 44 C12 42.68 12 41.36 12 40 C11.34 40 10.68 40 10 40 C10 38.68 10 37.36 10 36 C9.34 36 8.68 36 8 36 C8 34.02 8 32.04 8 30 C7.34 30 6.68 30 6 30 C6 28.68 6 27.36 6 26 C5.34 26 4.68 26 4 26 C4 24.68 4 23.36 4 22 C3.34 22 2.68 22 2 22 C2 20.68 2 19.36 2 18 C1.34 18 0.68 18 0 18 C0 16.68 0 15.36 0 14 C-0.66 14 -1.32 14 -2 14 C-2 12.68 -2 11.36 -2 10 C-2.66 10 -3.32 10 -4 10 C-4 8.02 -4 6.04 -4 4 C-3.34 4 -2.68 4 -2 4 C-2 3.34 -2 2.68 -2 2 C-1.34 2 -0.68 2 0 2 C0 1.34 0 0.68 0 0 Z " fill="#060606" transform="translate(822,250)"/>
<path d="M0 0 C5.94 0 11.88 0 18 0 C18 0.66 18 1.32 18 2 C20.64 2 23.28 2 26 2 C26 2.66 26 3.32 26 4 C27.32 4 28.64 4 30 4 C30 4.66 30 5.32 30 6 C31.32 6 32.64 6 34 6 C34 6.66 34 7.32 34 8 C34.66 8 35.32 8 36 8 C36 8.66 36 9.32 36 10 C36.66 10 37.32 10 38 10 C38 10.66 38 11.32 38 12 C38.66 12 39.32 12 40 12 C40 12.66 40 13.32 40 14 C40.66 14 41.32 14 42 14 C42 14.66 42 15.32 42 16 C42.66 16 43.32 16 44 16 C44 16.66 44 17.32 44 18 C44.66 18 45.32 18 46 18 C46 19.32 46 20.64 46 22 C46.66 22 47.32 22 48 22 C48 23.32 48 24.64 48 26 C48.66 26 49.32 26 50 26 C50 27.32 50 28.64 50 30 C50.66 30 51.32 30 52 30 C52 35.94 52 41.88 52 48 C51.34 48 50.68 48 50 48 C50 51.3 50 54.6 50 58 C49.34 58 48.68 58 48 58 C48 59.32 48 60.64 48 62 C47.34 62 46.68 62 46 62 C46 62.66 46 63.32 46 64 C45.34 64 44.68 64 44 64 C44 65.32 44 66.64 44 68 C43.34 68 42.68 68 42 68 C42 68.66 42 69.32 42 70 C41.34 70 40.68 70 40 70 C40 70.66 40 71.32 40 72 C39.34 72 38.68 72 38 72 C38 72.66 38 73.32 38 74 C36.68 74 35.36 74 34 74 C34 74.66 34 75.32 34 76 C33.34 76 32.68 76 32 76 C32 76.66 32 77.32 32 78 C30.68 78 29.36 78 28 78 C28 78.66 28 79.32 28 80 C26.02 80 24.04 80 22 80 C22 80.66 22 81.32 22 82 C14.08 82 6.16 82 -2 82 C-2 81.34 -2 80.68 -2 80 C-3.98 80 -5.96 80 -8 80 C-8 79.34 -8 78.68 -8 78 C-8.66 78 -9.32 78 -10 78 C-10 77.34 -10 76.68 -10 76 C-11.32 76 -12.64 76 -14 76 C-14 75.34 -14 74.68 -14 74 C-14.66 74 -15.32 74 -16 74 C-16 73.34 -16 72.68 -16 72 C-16.66 72 -17.32 72 -18 72 C-18 71.34 -18 70.68 -18 70 C-18.66 70 -19.32 70 -20 70 C-20 69.34 -20 68.68 -20 68 C-20.66 68 -21.32 68 -22 68 C-22 67.34 -22 66.68 -22 66 C-22.66 66 -23.32 66 -24 66 C-24 64.68 -24 63.36 -24 62 C-24.66 62 -25.32 62 -26 62 C-26 60.68 -26 59.36 -26 58 C-26.66 58 -27.32 58 -28 58 C-28 56.68 -28 55.36 -28 54 C-28.66 54 -29.32 54 -30 54 C-30 46.08 -30 38.16 -30 30 C-29.34 30 -28.68 30 -28 30 C-28 28.68 -28 27.36 -28 26 C-27.34 26 -26.68 26 -26 26 C-26 24.68 -26 23.36 -26 22 C-25.34 22 -24.68 22 -24 22 C-24 20.68 -24 19.36 -24 18 C-23.34 18 -22.68 18 -22 18 C-22 17.34 -22 16.68 -22 16 C-21.34 16 -20.68 16 -20 16 C-20 15.34 -20 14.68 -20 14 C-19.34 14 -18.68 14 -18 14 C-18 13.34 -18 12.68 -18 12 C-17.34 12 -16.68 12 -16 12 C-16 11.34 -16 10.68 -16 10 C-15.34 10 -14.68 10 -14 10 C-14 9.34 -14 8.68 -14 8 C-13.34 8 -12.68 8 -12 8 C-12 7.34 -12 6.68 -12 6 C-10.68 6 -9.36 6 -8 6 C-8 5.34 -8 4.68 -8 4 C-7.34 4 -6.68 4 -6 4 C-6 3.34 -6 2.68 -6 2 C-4.02 2 -2.04 2 0 2 C0 1.34 0 0.68 0 0 Z " fill="#FAFAFA" transform="translate(728,280)"/>
<path d="M0 0 C5.94 0 11.88 0 18 0 C18 0.66 18 1.32 18 2 C19.98 2 21.96 2 24 2 C24 2.66 24 3.32 24 4 C25.32 4 26.64 4 28 4 C28 4.66 28 5.32 28 6 C29.32 6 30.64 6 32 6 C32 6.66 32 7.32 32 8 C32.66 8 33.32 8 34 8 C34 8.66 34 9.32 34 10 C35.32 10 36.64 10 38 10 C38 10.66 38 11.32 38 12 C38.66 12 39.32 12 40 12 C40 12.66 40 13.32 40 14 C40.66 14 41.32 14 42 14 C42 15.32 42 16.64 42 18 C42.66 18 43.32 18 44 18 C44 18.66 44 19.32 44 20 C44.66 20 45.32 20 46 20 C46 21.32 46 22.64 46 24 C46.66 24 47.32 24 48 24 C48 25.32 48 26.64 48 28 C48.66 28 49.32 28 50 28 C50 36.58 50 45.16 50 54 C49.34 54 48.68 54 48 54 C48 55.98 48 57.96 48 60 C47.34 60 46.68 60 46 60 C46 60.66 46 61.32 46 62 C45.34 62 44.68 62 44 62 C44 63.32 44 64.64 44 66 C43.34 66 42.68 66 42 66 C42 66.66 42 67.32 42 68 C41.34 68 40.68 68 40 68 C40 68.66 40 69.32 40 70 C39.34 70 38.68 70 38 70 C38 70.66 38 71.32 38 72 C37.34 72 36.68 72 36 72 C36 72.66 36 73.32 36 74 C35.34 74 34.68 74 34 74 C34 74.66 34 75.32 34 76 C32.68 76 31.36 76 30 76 C30 76.66 30 77.32 30 78 C29.34 78 28.68 78 28 78 C28 78.66 28 79.32 28 80 C26.68 80 25.36 80 24 80 C24 80.66 24 81.32 24 82 C14.76 82 5.52 82 -4 82 C-4 81.34 -4 80.68 -4 80 C-5.32 80 -6.64 80 -8 80 C-8 79.34 -8 78.68 -8 78 C-9.32 78 -10.64 78 -12 78 C-12 77.34 -12 76.68 -12 76 C-12.66 76 -13.32 76 -14 76 C-14 75.34 -14 74.68 -14 74 C-14.66 74 -15.32 74 -16 74 C-16 73.34 -16 72.68 -16 72 C-16.66 72 -17.32 72 -18 72 C-18 71.34 -18 70.68 -18 70 C-19.32 70 -20.64 70 -22 70 C-22 68.68 -22 67.36 -22 66 C-22.66 66 -23.32 66 -24 66 C-24 65.34 -24 64.68 -24 64 C-24.66 64 -25.32 64 -26 64 C-26 62.68 -26 61.36 -26 60 C-26.66 60 -27.32 60 -28 60 C-28 58.02 -28 56.04 -28 54 C-28.66 54 -29.32 54 -30 54 C-30 52.02 -30 50.04 -30 48 C-30.66 48 -31.32 48 -32 48 C-32 42.72 -32 37.44 -32 32 C-31.34 32 -30.68 32 -30 32 C-30 30.02 -30 28.04 -30 26 C-29.34 26 -28.68 26 -28 26 C-28 24.68 -28 23.36 -28 22 C-27.34 22 -26.68 22 -26 22 C-26 21.34 -26 20.68 -26 20 C-25.34 20 -24.68 20 -24 20 C-24 18.68 -24 17.36 -24 16 C-23.34 16 -22.68 16 -22 16 C-22 15.34 -22 14.68 -22 14 C-21.34 14 -20.68 14 -20 14 C-20 13.34 -20 12.68 -20 12 C-19.34 12 -18.68 12 -18 12 C-18 11.34 -18 10.68 -18 10 C-17.34 10 -16.68 10 -16 10 C-16 9.34 -16 8.68 -16 8 C-15.34 8 -14.68 8 -14 8 C-14 7.34 -14 6.68 -14 6 C-12.68 6 -11.36 6 -10 6 C-10 5.34 -10 4.68 -10 4 C-8.68 4 -7.36 4 -6 4 C-6 3.34 -6 2.68 -6 2 C-4.02 2 -2.04 2 0 2 C0 1.34 0 0.68 0 0 Z " fill="#FAFAFA" transform="translate(258,280)"/>
<path d="M0 0 C9.24 0 18.48 0 28 0 C28 0.66 28 1.32 28 2 C29.98 2 31.96 2 34 2 C34 2.66 34 3.32 34 4 C35.32 4 36.64 4 38 4 C38 4.66 38 5.32 38 6 C39.32 6 40.64 6 42 6 C42 6.66 42 7.32 42 8 C43.32 8 44.64 8 46 8 C46 8.66 46 9.32 46 10 C46.66 10 47.32 10 48 10 C48 10.66 48 11.32 48 12 C48.66 12 49.32 12 50 12 C50 12.66 50 13.32 50 14 C50.66 14 51.32 14 52 14 C52 14.66 52 15.32 52 16 C52.66 16 53.32 16 54 16 C54 17.32 54 18.64 54 20 C54.66 20 55.32 20 56 20 C56 21.32 56 22.64 56 24 C56.66 24 57.32 24 58 24 C58 25.98 58 27.96 58 30 C58.66 30 59.32 30 60 30 C60 36.6 60 43.2 60 50 C59.34 50 58.68 50 58 50 C58 52.64 58 55.28 58 58 C57.34 58 56.68 58 56 58 C56 59.32 56 60.64 56 62 C55.34 62 54.68 62 54 62 C54 63.32 54 64.64 54 66 C53.34 66 52.68 66 52 66 C52 66.66 52 67.32 52 68 C51.34 68 50.68 68 50 68 C50 68.66 50 69.32 50 70 C49.34 70 48.68 70 48 70 C48 70.66 48 71.32 48 72 C47.34 72 46.68 72 46 72 C46 72.66 46 73.32 46 74 C45.34 74 44.68 74 44 74 C44 74.66 44 75.32 44 76 C43.34 76 42.68 76 42 76 C42 76.66 42 77.32 42 78 C40.02 78 38.04 78 36 78 C36 78.66 36 79.32 36 80 C34.02 80 32.04 80 30 80 C30 80.66 30 81.32 30 82 C20.1 82 10.2 82 0 82 C0 54.94 0 27.88 0 0 Z " fill="#FCFCFC" transform="translate(550,280)"/>
<path d="M0 0 C13.86 0 27.72 0 42 0 C42 0.66 42 1.32 42 2 C43.32 2 44.64 2 46 2 C46 2.66 46 3.32 46 4 C46.66 4 47.32 4 48 4 C48 4.66 48 5.32 48 6 C48.66 6 49.32 6 50 6 C50 6.66 50 7.32 50 8 C50.66 8 51.32 8 52 8 C52 13.28 52 18.56 52 24 C51.34 24 50.68 24 50 24 C50 24.66 50 25.32 50 26 C49.34 26 48.68 26 48 26 C48 26.66 48 27.32 48 28 C47.34 28 46.68 28 46 28 C46 28.66 46 29.32 46 30 C45.34 30 44.68 30 44 30 C44 30.66 44 31.32 44 32 C29.48 32 14.96 32 0 32 C0 21.44 0 10.88 0 0 Z " fill="#F7F7F7" transform="translate(402,280)"/>
<path d="M0 0 C0.66 0 1.32 0 2 0 C2 1.32 2 2.64 2 4 C2.66 4 3.32 4 4 4 C4 5.98 4 7.96 4 10 C4.66 10 5.32 10 6 10 C6 11.32 6 12.64 6 14 C6.66 14 7.32 14 8 14 C8 15.32 8 16.64 8 18 C8.66 18 9.32 18 10 18 C10 19.32 10 20.64 10 22 C10.66 22 11.32 22 12 22 C12 23.32 12 24.64 12 26 C12.66 26 13.32 26 14 26 C14 27.98 14 29.96 14 32 C4.76 32 -4.48 32 -14 32 C-14 31.34 -14 30.68 -14 30 C-13.34 30 -12.68 30 -12 30 C-12 28.68 -12 27.36 -12 26 C-11.34 26 -10.68 26 -10 26 C-10 24.02 -10 22.04 -10 20 C-9.34 20 -8.68 20 -8 20 C-8 18.68 -8 17.36 -8 16 C-7.34 16 -6.68 16 -6 16 C-6 14.68 -6 13.36 -6 12 C-5.34 12 -4.68 12 -4 12 C-4 10.68 -4 9.36 -4 8 C-3.34 8 -2.68 8 -2 8 C-2 6.68 -2 5.36 -2 4 C-1.34 4 -0.68 4 0 4 C0 2.68 0 1.36 0 0 Z " fill="#F0F0F0" transform="translate(1004,308)"/>
<path d="M0 0 C6.6 0 13.2 0 20 0 C20 1.98 20 3.96 20 6 C15.38 6 10.76 6 6 6 C6 7.98 6 9.96 6 12 C9.96 12 13.92 12 18 12 C18 13.98 18 15.96 18 18 C14.7 18 11.4 18 8 18 C8 19.98 8 21.96 8 24 C11.96 24 15.92 24 20 24 C20 25.98 20 27.96 20 30 C13.4 30 6.8 30 0 30 C0 20.1 0 10.2 0 0 Z " fill="#030303" transform="translate(224,186)"/>
<path d="M0 0 C3.96 0 7.92 0 12 0 C12 0.66 12 1.32 12 2 C13.32 2 14.64 2 16 2 C16 2.66 16 3.32 16 4 C16.66 4 17.32 4 18 4 C18 4.66 18 5.32 18 6 C18.66 6 19.32 6 20 6 C20 8.64 20 11.28 20 14 C19.34 14 18.68 14 18 14 C18 14.66 18 15.32 18 16 C17.34 16 16.68 16 16 16 C16 16.66 16 17.32 16 18 C15.34 18 14.68 18 14 18 C14 18.66 14 19.32 14 20 C11.36 20 8.72 20 6 20 C6 23.3 6 26.6 6 30 C4.02 30 2.04 30 0 30 C0 20.1 0 10.2 0 0 Z " fill="#090909" transform="translate(96,186)"/>
<path d="M0 0 C0.66 0 1.32 0 2 0 C2 0.66 2 1.32 2 2 C2.66 2 3.32 2 4 2 C4 3.32 4 4.64 4 6 C4.66 6 5.32 6 6 6 C6 7.32 6 8.64 6 10 C6.66 10 7.32 10 8 10 C8 11.32 8 12.64 8 14 C8.66 14 9.32 14 10 14 C10 15.98 10 17.96 10 20 C10.66 20 11.32 20 12 20 C12 21.32 12 22.64 12 24 C12.66 24 13.32 24 14 24 C14 25.32 14 26.64 14 28 C14.66 28 15.32 28 16 28 C16 28.66 16 29.32 16 30 C14.02 30 12.04 30 10 30 C10 29.34 10 28.68 10 28 C9.34 28 8.68 28 8 28 C8 26.68 8 25.36 8 24 C3.38 24 -1.24 24 -6 24 C-6 25.32 -6 26.64 -6 28 C-6.66 28 -7.32 28 -8 28 C-8 28.66 -8 29.32 -8 30 C-9.98 30 -11.96 30 -14 30 C-14 29.34 -14 28.68 -14 28 C-13.34 28 -12.68 28 -12 28 C-12 26.68 -12 25.36 -12 24 C-11.34 24 -10.68 24 -10 24 C-10 22.68 -10 21.36 -10 20 C-9.34 20 -8.68 20 -8 20 C-8 18.02 -8 16.04 -8 14 C-7.34 14 -6.68 14 -6 14 C-6 13.34 -6 12.68 -6 12 C-5.34 12 -4.68 12 -4 12 C-4 10.02 -4 8.04 -4 6 C-3.34 6 -2.68 6 -2 6 C-2 4.68 -2 3.36 -2 2 C-1.34 2 -0.68 2 0 2 C0 1.34 0 0.68 0 0 Z " fill="#151515" transform="translate(72,186)"/>
<path d="M0 0 C0.66 0 1.32 0 2 0 C2 0.66 2 1.32 2 2 C2.66 2 3.32 2 4 2 C4 3.32 4 4.64 4 6 C4.66 6 5.32 6 6 6 C6 7.32 6 8.64 6 10 C6.66 10 7.32 10 8 10 C8 11.98 8 13.96 8 16 C8.66 16 9.32 16 10 16 C10 16.66 10 17.32 10 18 C10.66 18 11.32 18 12 18 C12 19.98 12 21.96 12 24 C12.66 24 13.32 24 14 24 C14 25.32 14 26.64 14 28 C14.66 28 15.32 28 16 28 C16 28.66 16 29.32 16 30 C14.02 30 12.04 30 10 30 C10 29.34 10 28.68 10 28 C9.34 28 8.68 28 8 28 C8 26.68 8 25.36 8 24 C3.38 24 -1.24 24 -6 24 C-6 25.98 -6 27.96 -6 30 C-7.98 30 -9.96 30 -12 30 C-12 28.02 -12 26.04 -12 24 C-11.34 24 -10.68 24 -10 24 C-10 22.68 -10 21.36 -10 20 C-9.34 20 -8.68 20 -8 20 C-8 18.68 -8 17.36 -8 16 C-7.34 16 -6.68 16 -6 16 C-6 14.68 -6 13.36 -6 12 C-5.34 12 -4.68 12 -4 12 C-4 10.02 -4 8.04 -4 6 C-3.34 6 -2.68 6 -2 6 C-2 4.68 -2 3.36 -2 2 C-1.34 2 -0.68 2 0 2 C0 1.34 0 0.68 0 0 Z " fill="#151515" transform="translate(132,186)"/>
<path d="M0 0 C1.98 0 3.96 0 6 0 C6 3.96 6 7.92 6 12 C10.62 12 15.24 12 20 12 C20 8.04 20 4.08 20 0 C21.32 0 22.64 0 24 0 C24 9.9 24 19.8 24 30 C22.68 30 21.36 30 20 30 C20 26.04 20 22.08 20 18 C15.38 18 10.76 18 6 18 C6 21.96 6 25.92 6 30 C4.02 30 2.04 30 0 30 C0 20.1 0 10.2 0 0 Z " fill="#0C0C0C" transform="translate(188,186)"/>
<path d="M0 0 C3.96 0 7.92 0 12 0 C12 0.66 12 1.32 12 2 C13.32 2 14.64 2 16 2 C16 3.32 16 4.64 16 6 C15.34 6 14.68 6 14 6 C14 6.66 14 7.32 14 8 C13.34 8 12.68 8 12 8 C12 7.34 12 6.68 12 6 C8.7 6 5.4 6 2 6 C2 6.66 2 7.32 2 8 C1.34 8 0.68 8 0 8 C0 8.66 0 9.32 0 10 C-0.66 10 -1.32 10 -2 10 C-2 13.3 -2 16.6 -2 20 C-1.34 20 -0.68 20 0 20 C0 20.66 0 21.32 0 22 C0.66 22 1.32 22 2 22 C2 22.66 2 23.32 2 24 C5.3 24 8.6 24 12 24 C12 23.34 12 22.68 12 22 C12.66 22 13.32 22 14 22 C14 22.66 14 23.32 14 24 C14.66 24 15.32 24 16 24 C16 25.32 16 26.64 16 28 C14.68 28 13.36 28 12 28 C12 28.66 12 29.32 12 30 C8.04 30 4.08 30 0 30 C0 29.34 0 28.68 0 28 C-1.32 28 -2.64 28 -4 28 C-4 27.34 -4 26.68 -4 26 C-4.66 26 -5.32 26 -6 26 C-6 25.34 -6 24.68 -6 24 C-6.66 24 -7.32 24 -8 24 C-8 22.68 -8 21.36 -8 20 C-8.66 20 -9.32 20 -10 20 C-10 16.7 -10 13.4 -10 10 C-9.34 10 -8.68 10 -8 10 C-8 8.68 -8 7.36 -8 6 C-7.34 6 -6.68 6 -6 6 C-6 5.34 -6 4.68 -6 4 C-5.34 4 -4.68 4 -4 4 C-4 3.34 -4 2.68 -4 2 C-2.68 2 -1.36 2 0 2 C0 1.34 0 0.68 0 0 Z " fill="#1E1E1E" transform="translate(162,186)"/>
<path d="M0 0 C9.24 0 18.48 0 28 0 C28 0.66 28 1.32 28 2 C19.42 2 10.84 2 2 2 C2 28.4 2 54.8 2 82 C1.34 82 0.68 82 0 82 C0 54.94 0 27.88 0 0 Z " fill="#ABABAB" transform="translate(550,280)"/>
<path d="M0 0 C2.64 0 5.28 0 8 0 C8 0.66 8 1.32 8 2 C8.66 2 9.32 2 10 2 C10 2.66 10 3.32 10 4 C11.32 4 12.64 4 14 4 C14 2.68 14 1.36 14 0 C14.66 0 15.32 0 16 0 C16 2.64 16 5.28 16 8 C15.34 8 14.68 8 14 8 C14 8.66 14 9.32 14 10 C13.34 10 12.68 10 12 10 C12 10.66 12 11.32 12 12 C11.34 12 10.68 12 10 12 C10 12.66 10 13.32 10 14 C7.36 14 4.72 14 2 14 C2 17.3 2 20.6 2 24 C1.34 24 0.68 24 0 24 C0 20.04 0 16.08 0 12 C0.66 12 1.32 12 2 12 C2 11.34 2 10.68 2 10 C2.66 10 3.32 10 4 10 C4 9.34 4 8.68 4 8 C2.68 8 1.36 8 0 8 C0 5.36 0 2.72 0 0 Z " fill="#323232" transform="translate(100,192)"/>
<path d="M0 0 C6.6 0 13.2 0 20 0 C20 1.98 20 3.96 20 6 C15.38 6 10.76 6 6 6 C6 5.34 6 4.68 6 4 C9.96 4 13.92 4 18 4 C18 3.34 18 2.68 18 2 C12.72 2 7.44 2 2 2 C2 11.24 2 20.48 2 30 C1.34 30 0.68 30 0 30 C0 20.1 0 10.2 0 0 Z " fill="#525252" transform="translate(224,186)"/>
<path d="M0 0 C3.96 0 7.92 0 12 0 C12 1.98 12 3.96 12 6 C8.7 6 5.4 6 2 6 C2 7.98 2 9.96 2 12 C5.96 12 9.92 12 14 12 C14 12.66 14 13.32 14 14 C9.38 14 4.76 14 0 14 C0 10.7 0 7.4 0 4 C3.3 4 6.6 4 10 4 C10 3.34 10 2.68 10 2 C6.7 2 3.4 2 0 2 C0 1.34 0 0.68 0 0 Z " fill="#343434" transform="translate(230,198)"/>
<path d="M0 0 C2.64 0 5.28 0 8 0 C8 0.66 8 1.32 8 2 C8.66 2 9.32 2 10 2 C10 3.32 10 4.64 10 6 C9.34 6 8.68 6 8 6 C8 6.66 8 7.32 8 8 C5.36 8 2.72 8 0 8 C0 5.36 0 2.72 0 0 Z " fill="#D6D6D6" transform="translate(100,192)"/>
<path d="M0 0 C1.98 0 3.96 0 6 0 C6 3.96 6 7.92 6 12 C5.34 12 4.68 12 4 12 C4 8.7 4 5.4 4 2 C3.34 2 2.68 2 2 2 C2 8.6 2 15.2 2 22 C1.34 22 0.68 22 0 22 C0 14.74 0 7.48 0 0 Z " fill="#1A1A1A" transform="translate(188,186)"/>
<path d="M0 0 C0.66 0 1.32 0 2 0 C2 1.32 2 2.64 2 4 C-7.9 4 -17.8 4 -28 4 C-28 3.34 -28 2.68 -28 2 C-18.76 2 -9.52 2 0 2 C0 1.34 0 0.68 0 0 Z " fill="#1D1D1D" transform="translate(1018,338)"/>
<path d="M0 0 C1.32 0 2.64 0 4 0 C4 0.66 4 1.32 4 2 C4.66 2 5.32 2 6 2 C6 3.32 6 4.64 6 6 C6.66 6 7.32 6 8 6 C8 6.66 8 7.32 8 8 C6.02 8 4.04 8 2 8 C2 7.34 2 6.68 2 6 C1.34 6 0.68 6 0 6 C0 4.02 0 2.04 0 0 Z " fill="#191919" transform="translate(80,208)"/>
<path d="M0 0 C1.32 0 2.64 0 4 0 C4 0.66 4 1.32 4 2 C4.66 2 5.32 2 6 2 C6 2.66 6 3.32 6 4 C6.66 4 7.32 4 8 4 C8 4.66 8 5.32 8 6 C8.66 6 9.32 6 10 6 C10 6.66 10 7.32 10 8 C9.34 8 8.68 8 8 8 C8 8.66 8 9.32 8 10 C7.34 10 6.68 10 6 10 C6 9.34 6 8.68 6 8 C5.34 8 4.68 8 4 8 C4 6.68 4 5.36 4 4 C3.34 4 2.68 4 2 4 C2 3.34 2 2.68 2 2 C1.34 2 0.68 2 0 2 C0 1.34 0 0.68 0 0 Z " fill="#E4E4E4" transform="translate(322,272)"/>
<path d="M0 0 C0.66 0 1.32 0 2 0 C2 1.98 2 3.96 2 6 C5.96 6 9.92 6 14 6 C14 6.66 14 7.32 14 8 C9.38 8 4.76 8 0 8 C0 5.36 0 2.72 0 0 Z " fill="#6E6E6E" transform="translate(230,204)"/>
<path d="M0 0 C0.66 0 1.32 0 2 0 C2 0.66 2 1.32 2 2 C2.66 2 3.32 2 4 2 C4 3.98 4 5.96 4 8 C2.02 8 0.04 8 -2 8 C-2 6.02 -2 4.04 -2 2 C-1.34 2 -0.68 2 0 2 C0 1.34 0 0.68 0 0 Z " fill="#1C1C1C" transform="translate(122,208)"/>
<path d="M0 0 C0.66 0 1.32 0 2 0 C2 0.66 2 1.32 2 2 C2.66 2 3.32 2 4 2 C4 3.98 4 5.96 4 8 C2.02 8 0.04 8 -2 8 C-2 6.02 -2 4.04 -2 2 C-1.34 2 -0.68 2 0 2 C0 1.34 0 0.68 0 0 Z " fill="#CDCDCD" transform="translate(72,198)"/>
<path d="M0 0 C1.32 0 2.64 0 4 0 C4 1.32 4 2.64 4 4 C2.68 4 1.36 4 0 4 C0 4.66 0 5.32 0 6 C-1.98 6 -3.96 6 -6 6 C-6 5.34 -6 4.68 -6 4 C-5.34 4 -4.68 4 -4 4 C-4 3.34 -4 2.68 -4 2 C-2.68 2 -1.36 2 0 2 C0 1.34 0 0.68 0 0 Z " fill="#303030" transform="translate(160,350)"/>
<path d="M0 0 C1.32 0 2.64 0 4 0 C4 0.66 4 1.32 4 2 C4.66 2 5.32 2 6 2 C6 2.66 6 3.32 6 4 C6.66 4 7.32 4 8 4 C8 4.66 8 5.32 8 6 C6.68 6 5.36 6 4 6 C4 7.32 4 8.64 4 10 C3.34 10 2.68 10 2 10 C2 7.36 2 4.72 2 2 C1.34 2 0.68 2 0 2 C0 1.34 0 0.68 0 0 Z " fill="#D3D3D3" transform="translate(806,294)"/>
<path d="M0 0 C0.66 0 1.32 0 2 0 C2 0.66 2 1.32 2 2 C2.66 2 3.32 2 4 2 C4 3.98 4 5.96 4 8 C2.02 8 0.04 8 -2 8 C-2 6.68 -2 5.36 -2 4 C-1.34 4 -0.68 4 0 4 C0 2.68 0 1.36 0 0 Z " fill="#D8D8D8" transform="translate(132,198)"/>
<path d="M0 0 C0.66 0 1.32 0 2 0 C2 0.66 2 1.32 2 2 C2.66 2 3.32 2 4 2 C4 2.66 4 3.32 4 4 C3.34 4 2.68 4 2 4 C2 4.66 2 5.32 2 6 C1.34 6 0.68 6 0 6 C0 6.66 0 7.32 0 8 C-0.66 8 -1.32 8 -2 8 C-2 8.66 -2 9.32 -2 10 C-2.66 10 -3.32 10 -4 10 C-4 8.68 -4 7.36 -4 6 C-3.34 6 -2.68 6 -2 6 C-2 4.68 -2 3.36 -2 2 C-1.34 2 -0.68 2 0 2 C0 1.34 0 0.68 0 0 Z " fill="#282828" transform="translate(132,186)"/>
<path d="M0 0 C0.66 0 1.32 0 2 0 C2 0.66 2 1.32 2 2 C2.66 2 3.32 2 4 2 C4 3.98 4 5.96 4 8 C2.68 8 1.36 8 0 8 C0 7.34 0 6.68 0 6 C-0.66 6 -1.32 6 -2 6 C-2 4.68 -2 3.36 -2 2 C-1.34 2 -0.68 2 0 2 C0 1.34 0 0.68 0 0 Z " fill="#111111" transform="translate(110,188)"/>
<path d="M0 0 C1.32 0 2.64 0 4 0 C4 2.64 4 5.28 4 8 C2.68 8 1.36 8 0 8 C0 5.36 0 2.72 0 0 Z " fill="#606060" transform="translate(1076,250)"/>
<path d="M0 0 C1.98 0 3.96 0 6 0 C6 3.96 6 7.92 6 12 C5.34 12 4.68 12 4 12 C4 8.7 4 5.4 4 2 C2.68 2 1.36 2 0 2 C0 1.34 0 0.68 0 0 Z " fill="#282828" transform="translate(188,186)"/>
<path d="M0 0 C1.32 0 2.64 0 4 0 C4 0.66 4 1.32 4 2 C4.66 2 5.32 2 6 2 C6 3.32 6 4.64 6 6 C4.68 6 3.36 6 2 6 C2 5.34 2 4.68 2 4 C1.34 4 0.68 4 0 4 C0 2.68 0 1.36 0 0 Z " fill="#F6F6F6" transform="translate(686,376)"/>
<path d="M0 0 C3.96 0 7.92 0 12 0 C12 1.32 12 2.64 12 4 C11.34 4 10.68 4 10 4 C10 3.34 10 2.68 10 2 C6.7 2 3.4 2 0 2 C0 1.34 0 0.68 0 0 Z " fill="#969696" transform="translate(1000,248)"/>
<path d="M0 0 C0.66 0 1.32 0 2 0 C2 1.32 2 2.64 2 4 C1.34 4 0.68 4 0 4 C0 4.66 0 5.32 0 6 C-0.66 6 -1.32 6 -2 6 C-2 6.66 -2 7.32 -2 8 C-3.32 8 -4.64 8 -6 8 C-6 7.34 -6 6.68 -6 6 C-5.34 6 -4.68 6 -4 6 C-4 5.34 -4 4.68 -4 4 C-3.34 4 -2.68 4 -2 4 C-2 3.34 -2 2.68 -2 2 C-1.34 2 -0.68 2 0 2 C0 1.34 0 0.68 0 0 Z " fill="#000000" transform="translate(134,190)"/>
<path d="M0 0 C0.66 0 1.32 0 2 0 C2 1.32 2 2.64 2 4 C2.66 4 3.32 4 4 4 C4 4.66 4 5.32 4 6 C3.34 6 2.68 6 2 6 C2 7.32 2 8.64 2 10 C1.34 10 0.68 10 0 10 C0 6.7 0 3.4 0 0 Z " fill="#141414" transform="translate(938,380)"/>
<path d="M0 0 C0.66 0 1.32 0 2 0 C2 1.32 2 2.64 2 4 C2.66 4 3.32 4 4 4 C4 5.32 4 6.64 4 8 C3.34 8 2.68 8 2 8 C2 7.34 2 6.68 2 6 C1.34 6 0.68 6 0 6 C0 5.34 0 4.68 0 4 C-0.66 4 -1.32 4 -2 4 C-2 3.34 -2 2.68 -2 2 C-1.34 2 -0.68 2 0 2 C0 1.34 0 0.68 0 0 Z " fill="#D3D3D3" transform="translate(428,346)"/>
<path d="M0 0 C1.32 0 2.64 0 4 0 C4 0.66 4 1.32 4 2 C5.32 2 6.64 2 8 2 C8 3.32 8 4.64 8 6 C7.34 6 6.68 6 6 6 C6 5.34 6 4.68 6 4 C4.68 4 3.36 4 2 4 C2 3.34 2 2.68 2 2 C1.34 2 0.68 2 0 2 C0 1.34 0 0.68 0 0 Z " fill="#D7D7D7" transform="translate(308,260)"/>
<path d="M0 0 C0.66 0 1.32 0 2 0 C2 2.64 2 5.28 2 8 C2.66 8 3.32 8 4 8 C4 8.66 4 9.32 4 10 C2.68 10 1.36 10 0 10 C0 6.7 0 3.4 0 0 Z " fill="#555555" transform="translate(158,198)"/>
<path d="M0 0 C0.66 0 1.32 0 2 0 C2 1.98 2 3.96 2 6 C2.66 6 3.32 6 4 6 C4 6.66 4 7.32 4 8 C2.68 8 1.36 8 0 8 C0 5.36 0 2.72 0 0 Z " fill="#B8B8B8" transform="translate(936,384)"/>
<path d="M0 0 C0.66 0 1.32 0 2 0 C2 0.66 2 1.32 2 2 C3.98 2 5.96 2 8 2 C8 2.66 8 3.32 8 4 C5.36 4 2.72 4 0 4 C0 2.68 0 1.36 0 0 Z " fill="#C7C7C7" transform="translate(238,388)"/>
<path d="M0 0 C1.32 0 2.64 0 4 0 C4 1.32 4 2.64 4 4 C2.02 4 0.04 4 -2 4 C-2 3.34 -2 2.68 -2 2 C-1.34 2 -0.68 2 0 2 C0 1.34 0 0.68 0 0 Z " fill="#2E2E2E" transform="translate(106,388)"/>
<path d="M0 0 C0.66 0 1.32 0 2 0 C2 1.32 2 2.64 2 4 C1.34 4 0.68 4 0 4 C0 4.66 0 5.32 0 6 C-1.32 6 -2.64 6 -4 6 C-4 5.34 -4 4.68 -4 4 C-3.34 4 -2.68 4 -2 4 C-2 3.34 -2 2.68 -2 2 C-1.34 2 -0.68 2 0 2 C0 1.34 0 0.68 0 0 Z " fill="#C9C9C9" transform="translate(628,364)"/>
<path d="M0 0 C0.66 0 1.32 0 2 0 C2 1.32 2 2.64 2 4 C2.66 4 3.32 4 4 4 C4 5.32 4 6.64 4 8 C3.34 8 2.68 8 2 8 C2 7.34 2 6.68 2 6 C1.34 6 0.68 6 0 6 C0 4.02 0 2.04 0 0 Z " fill="#CBCBCB" transform="translate(858,346)"/>
<path d="M0 0 C0.66 0 1.32 0 2 0 C2 2.64 2 5.28 2 8 C0.68 8 -0.64 8 -2 8 C-2 7.34 -2 6.68 -2 6 C-1.34 6 -0.68 6 0 6 C0 4.02 0 2.04 0 0 Z " fill="#333333" transform="translate(956,340)"/>
<path d="M0 0 C1.32 0 2.64 0 4 0 C4 2.64 4 5.28 4 8 C3.34 8 2.68 8 2 8 C2 6.02 2 4.04 2 2 C1.34 2 0.68 2 0 2 C0 1.34 0 0.68 0 0 Z " fill="#262626" transform="translate(198,344)"/>
<path d="M0 0 C1.32 0 2.64 0 4 0 C4 0.66 4 1.32 4 2 C3.34 2 2.68 2 2 2 C2 3.32 2 4.64 2 6 C1.34 6 0.68 6 0 6 C0 5.34 0 4.68 0 4 C-0.66 4 -1.32 4 -2 4 C-2 3.34 -2 2.68 -2 2 C-1.34 2 -0.68 2 0 2 C0 1.34 0 0.68 0 0 Z " fill="#D2D2D2" transform="translate(774,336)"/>
<path d="M0 0 C0.66 0 1.32 0 2 0 C2 1.32 2 2.64 2 4 C2.66 4 3.32 4 4 4 C4 5.32 4 6.64 4 8 C3.34 8 2.68 8 2 8 C2 7.34 2 6.68 2 6 C1.34 6 0.68 6 0 6 C0 4.02 0 2.04 0 0 Z " fill="#C4C4C4" transform="translate(836,298)"/>
<path d="M0 0 C0.66 0 1.32 0 2 0 C2 0.66 2 1.32 2 2 C2.66 2 3.32 2 4 2 C4 2.66 4 3.32 4 4 C4.66 4 5.32 4 6 4 C6 4.66 6 5.32 6 6 C4.68 6 3.36 6 2 6 C2 5.34 2 4.68 2 4 C1.34 4 0.68 4 0 4 C0 2.68 0 1.36 0 0 Z " fill="#ECECEC" transform="translate(764,290)"/>
<path d="M0 0 C0.66 0 1.32 0 2 0 C2 1.32 2 2.64 2 4 C2.66 4 3.32 4 4 4 C4 4.66 4 5.32 4 6 C3.34 6 2.68 6 2 6 C2 6.66 2 7.32 2 8 C1.34 8 0.68 8 0 8 C0 5.36 0 2.72 0 0 Z " fill="#262626" transform="translate(704,290)"/>
<path d="M0 0 C0.66 0 1.32 0 2 0 C2 0.66 2 1.32 2 2 C2.66 2 3.32 2 4 2 C4 3.32 4 4.64 4 6 C3.34 6 2.68 6 2 6 C2 5.34 2 4.68 2 4 C0.68 4 -0.64 4 -2 4 C-2 3.34 -2 2.68 -2 2 C-1.34 2 -0.68 2 0 2 C0 1.34 0 0.68 0 0 Z " fill="#E3E3E3" transform="translate(168,256)"/>
<path d="M0 0 C1.32 0 2.64 0 4 0 C4 2.64 4 5.28 4 8 C3.34 8 2.68 8 2 8 C2 6.02 2 4.04 2 2 C1.34 2 0.68 2 0 2 C0 1.34 0 0.68 0 0 Z " fill="#D3D3D3" transform="translate(952,252)"/>
<path d="M0 0 C0.66 0 1.32 0 2 0 C2 0.66 2 1.32 2 2 C3.32 2 4.64 2 6 2 C6 3.32 6 4.64 6 6 C5.34 6 4.68 6 4 6 C4 5.34 4 4.68 4 4 C2.68 4 1.36 4 0 4 C0 2.68 0 1.36 0 0 Z " fill="#3B3B3B" transform="translate(64,200)"/>
<path d="M0 0 C0.66 0 1.32 0 2 0 C2 0.66 2 1.32 2 2 C2.66 2 3.32 2 4 2 C4 2.66 4 3.32 4 4 C3.34 4 2.68 4 2 4 C2 4.66 2 5.32 2 6 C1.34 6 0.68 6 0 6 C0 5.34 0 4.68 0 4 C-0.66 4 -1.32 4 -2 4 C-2 3.34 -2 2.68 -2 2 C-1.34 2 -0.68 2 0 2 C0 1.34 0 0.68 0 0 Z " fill="#E7E7E7" transform="translate(134,182)"/>
</svg>
