<?xml version="1.0" encoding="UTF-8"?>
<svg version="1.1" xmlns="http://www.w3.org/2000/svg" width="1200" height="1068">
<path d="M0 0 C3.32459848 0.01915147 6.64495372 -0.02025233 9.96923828 -0.06469727 C78.01702112 -0.32752216 143.46623479 45.59369778 193.72314453 87.70678711 C194.23828613 88.13701172 194.75342773 88.56723633 195.28417969 89.01049805 C201.7918387 94.45059983 208.20344622 99.97352698 214.48095703 105.67944336 C216.43522878 107.4464591 218.41374191 109.1759224 220.41064453 110.89428711 C223.16179732 113.26694454 225.80131774 115.7314437 228.41455078 118.25366211 C229.08075439 118.89150635 229.74695801 119.52935059 230.43334961 120.18652344 C231.77845087 121.47753086 233.11575849 122.77671475 234.44458008 124.08447266 C235.0676001 124.68042236 235.69062012 125.27637207 236.33251953 125.89038086 C236.88907227 126.43235107 237.445625 126.97432129 238.01904297 127.53271484 C239.92722953 129.08502023 239.92722953 129.08502023 243.72314453 128.70678711 C245.90484782 126.97429207 245.90484782 126.97429207 247.97314453 124.64428711 C250.72360791 121.76880267 253.44978678 118.98207637 256.47314453 116.39428711 C259.50342951 113.79776062 262.44141475 111.12253354 265.35693359 108.39916992 C270.73464051 103.37809977 276.2029529 98.56650679 281.94580078 93.96069336 C284.37102184 91.99254631 286.74094129 89.97376554 289.10083008 87.92822266 C297.47681844 80.69804957 306.31718844 74.11132245 315.22265625 67.55151367 C317.54373847 65.83914331 319.85475486 64.11401705 322.16455078 62.38647461 C358.63326047 35.32944484 411.38885398 1.22618299 458.76269531 0.51391602 C459.74207062 0.49785309 460.72144592 0.48179016 461.73049927 0.46524048 C466.24480089 0.42008147 470.75896132 0.37963706 475.2734375 0.35668945 C477.63161173 0.34026179 479.98973897 0.31315078 482.34765625 0.2746582 C500.88742494 -0.02576076 517.75037884 1.43815512 534.53564453 9.89428711 C535.70244751 10.46566406 535.70244751 10.46566406 536.89282227 11.04858398 C570.09814298 27.82687071 589.9617697 59.24010794 601.38330078 93.60131836 C625.59593275 170.37344898 609.44693767 256.33410857 591.72314453 332.70678711 C592.83496094 333.02933472 592.83496094 333.02933472 593.96923828 333.35839844 C657.21293021 351.79641174 721.43737567 375.59142772 773.72314453 416.70678711 C774.71830078 417.48795898 775.71345703 418.26913086 776.73876953 419.07397461 C783.68233194 424.64866328 790.24619231 430.60280545 796.72314453 436.70678711 C797.82142578 437.74125977 797.82142578 437.74125977 798.94189453 438.79663086 C823.97454651 463.08426343 841.3638614 495.68127176 842.19360352 530.82250977 C842.28910493 543.58181463 841.66747818 555.53526863 837.72314453 567.70678711 C837.51415527 568.37242676 837.30516602 569.03806641 837.08984375 569.72387695 C830.36561641 590.62186889 818.63052576 608.55229095 803.73095703 624.54663086 C801.84826459 626.5721735 800.06577392 628.65383102 798.28564453 630.76928711 C775.13945169 657.18441835 741.1476852 676.82396172 709.84521484 691.69067383 C707.41640526 692.85366342 705.00385186 694.04755594 702.59033203 695.24194336 C667.03915203 712.71239974 629.5557343 725.22835934 591.72314453 736.70678711 C591.96436035 737.73521729 592.20557617 738.76364746 592.45410156 739.82324219 C611.15692679 819.87093651 628.37692802 914.61480243 583.72314453 1014.70678711 C578.52793023 1022.68266518 572.23009083 1029.78785539 565.72314453 1036.70678711 C565.18560547 1037.3087793 564.64806641 1037.91077148 564.09423828 1038.53100586 C548.2700449 1055.54498821 521.76894877 1068.14199803 498.54663086 1069.01318359 C496.71631675 1069.04621049 494.88575716 1069.06728152 493.05517578 1069.07788086 C491.5601075 1069.09142357 491.5601075 1069.09142357 490.03483582 1069.10523987 C487.93137573 1069.11966757 485.82787152 1069.12861034 483.72436523 1069.13232422 C480.58836625 1069.14408932 477.45442516 1069.19323896 474.31884766 1069.24389648 C423.59138139 1069.65041696 374.46685509 1042.83076431 333.72314453 1014.70678711 C333.06282227 1014.25368164 332.4025 1013.80057617 331.72216797 1013.33374023 C316.49744152 1002.85820877 301.90537702 991.55337003 287.72314453 979.70678711 C287.22008789 979.28864746 286.71703125 978.87050781 286.19873047 978.43969727 C279.10169633 972.53412029 272.19741617 966.46289962 265.42236328 960.19116211 C263.21616789 958.16056838 260.98946824 956.16937671 258.72314453 954.20678711 C253.28285677 949.49263945 248.01592522 944.58496664 242.72314453 939.70678711 C239.44621128 941.16074173 237.10903427 942.97498271 234.47314453 945.39428711 C233.60044922 946.1922168 232.72775391 946.99014648 231.82861328 947.81225586 C229.50576502 949.96792653 227.20090989 952.14214668 224.89892578 954.32006836 C218.25405537 960.60295519 211.63341627 966.7836169 204.47314453 972.48413086 C201.87687961 974.58253248 199.3568211 976.7443831 196.84179688 978.93823242 C145.80219917 1023.38884818 76.43776762 1070.17103348 6.4140625 1069.30371094 C3.32737347 1069.26905389 0.24351498 1069.28324356 -2.84326172 1069.30249023 C-17.84645751 1069.29232278 -31.94067871 1067.59087742 -45.83935547 1061.58178711 C-46.52932617 1061.28812256 -47.21929687 1060.99445801 -47.93017578 1060.69189453 C-61.56507578 1054.66035794 -72.86316481 1046.29257586 -83.27685547 1035.70678711 C-84.60136719 1034.3803418 -84.60136719 1034.3803418 -85.95263672 1033.02709961 C-122.64518507 994.56554815 -130.34603359 934.42262409 -129.46435547 883.61303711 C-128.07739988 833.68263588 -119.66151755 785.24560191 -108.27685547 736.70678711 C-109.33557861 736.38105713 -110.39430176 736.05532715 -111.48510742 735.71972656 C-164.3767601 719.40010758 -217.37132567 700.69947353 -264.27685547 670.70678711 C-265.27362305 670.07595215 -265.27362305 670.07595215 -266.29052734 669.43237305 C-280.31731563 660.51201373 -293.61526201 650.54063829 -305.70654297 639.12475586 C-307.90772017 637.05404356 -310.15272646 635.08877504 -312.46435547 633.14428711 C-336.00052187 612.61686775 -354.2873628 580.82334956 -358.27685547 549.70678711 C-360.82832968 510.63117106 -349.59775131 477.63669862 -323.86523438 448.08569336 C-320.74262088 444.55399914 -317.53154602 441.11692557 -314.27685547 437.70678711 C-313.51630859 436.90499023 -312.75576172 436.10319336 -311.97216797 435.27709961 C-306.44898643 429.59667446 -300.49611673 424.60580466 -294.27685547 419.70678711 C-293.30103516 418.92561523 -292.32521484 418.14444336 -291.31982422 417.33959961 C-247.42818039 382.7783807 -194.82097162 360.74833764 -142.21435547 343.20678711 C-141.48379944 342.96307373 -140.75324341 342.71936035 -140.00054932 342.46826172 C-129.49329887 338.97744133 -118.91512785 335.77361651 -108.27685547 332.70678711 C-108.51283447 331.67948486 -108.74881348 330.65218262 -108.99194336 329.59375 C-119.34845701 284.31291038 -128.43753671 238.31309665 -129.27685547 191.70678711 C-129.29731934 190.88065918 -129.3177832 190.05453125 -129.33886719 189.20336914 C-130.51655195 137.64802857 -123.78666252 78.89773633 -88.27685547 38.70678711 C-87.42027344 37.65297852 -87.42027344 37.65297852 -86.54638672 36.57788086 C-81.78643309 30.80035994 -76.19053276 26.26404052 -70.27685547 21.70678711 C-69.53048828 21.10995117 -68.78412109 20.51311523 -68.01513672 19.89819336 C-62.80123265 15.95819255 -57.1840008 12.96113444 -51.33935547 10.08178711 C-50.63166016 9.72149414 -49.92396484 9.36120117 -49.19482422 8.98999023 C-33.36472082 1.47206051 -17.32519895 -0.13284255 0 0 Z M-47.27685547 72.70678711 C-69.05590074 97.27615931 -75.34168859 134.40768483 -75.47998047 166.22241211 C-75.4870401 167.30335144 -75.49409973 168.38429077 -75.50137329 169.49798584 C-75.61691037 192.41537014 -75.63073266 214.99504194 -72.27685547 237.70678711 C-72.07582009 239.11445176 -71.87515312 240.52216906 -71.67480469 241.92993164 C-67.90948302 268.10563329 -62.75930816 294.06630818 -56.27685547 319.70678711 C-47.37907519 318.44473762 -38.59710664 316.79880763 -29.80264282 314.96481323 C3.81488658 308.00109015 37.70903777 303.08536446 71.78173828 298.96850586 C72.69476715 298.8572789 73.60779602 298.74605194 74.54849243 298.63145447 C79.16792583 298.08149737 83.78146289 297.6040439 88.41918945 297.23657227 C89.33366348 297.16018021 90.24813751 297.08378815 91.19032288 297.00508118 C92.91595067 296.86508105 94.64287192 296.73990325 96.37083435 296.63249207 C100.17036241 296.32025748 102.22380475 296.06194424 105.39160156 293.80883789 C107.53120699 291.26646931 109.06485069 288.58824397 110.72314453 285.70678711 C112.73033669 282.81224274 114.82690568 279.9840138 116.91064453 277.14428711 C118.03781839 275.57590286 119.16411071 274.00688471 120.28955078 272.43725586 C125.60710809 265.07181224 131.15289034 257.88199967 136.72314453 250.70678711 C137.43035645 249.79485596 137.43035645 249.79485596 138.15185547 248.86450195 C145.05618243 239.97805984 152.12740883 231.23023081 159.24658203 222.51538086 C160.55361994 220.91443231 161.85737809 219.31080735 163.16064453 217.70678711 C171.11241499 207.93746912 179.20038791 198.30324858 187.66845703 188.97631836 C190.73199222 185.59245155 193.7261756 182.14952946 196.72314453 178.70678711 C198.03527948 177.20646777 199.34777204 175.7064611 200.66064453 174.20678711 C201.24716797 173.53647461 201.83369141 172.86616211 202.43798828 172.17553711 C202.86208984 171.69084961 203.28619141 171.20616211 203.72314453 170.70678711 C202.05758871 166.37423367 198.84880519 163.57124598 195.59814453 160.39428711 C195.0099292 159.81324219 194.42171387 159.23219727 193.81567383 158.63354492 C190.20289264 155.08780503 186.52766926 151.6487579 182.66845703 148.37084961 C180.37081521 146.40539697 178.1444133 144.3694884 175.91064453 142.33178711 C171.64704436 138.48872413 167.2776218 134.81355977 162.81298828 131.20678711 C160.56353788 129.38675139 158.32840661 127.55459829 156.10205078 125.70678711 C136.2541336 109.29600924 115.0132885 94.60570903 92.72314453 81.70678711 C92.04348633 81.3075 91.36382812 80.90821289 90.66357422 80.49682617 C50.61533282 57.03921427 -9.34652828 33.50200093 -47.27685547 72.70678711 Z M405.66357422 73.68579102 C403.69727804 74.72039728 401.71669207 75.72178442 399.73095703 76.71850586 C375.67727019 88.927292 353.67714394 104.81138569 332.72314453 121.70678711 C331.78212891 122.46475586 330.84111328 123.22272461 329.87158203 124.00366211 C327.14179733 126.22210385 324.42852467 128.45865432 321.72314453 130.70678711 C321.21428711 131.12927734 320.70542969 131.55176758 320.18115234 131.98706055 C313.09376928 137.8853143 306.19723558 143.94774152 299.43408203 150.21459961 C297.16749755 152.29828966 294.8721858 154.32771812 292.53564453 156.33178711 C288.03635372 160.22485768 283.88455002 164.45868567 279.72314453 168.70678711 C281.32107842 172.56922159 283.94465414 175.28893286 286.78564453 178.26928711 C290.43240733 182.16462493 293.93819756 186.10888873 297.28564453 190.26928711 C300.3167202 194.035169 303.4489603 197.65008467 306.72314453 201.20678711 C311.61688684 206.53653104 316.18421769 212.07448961 320.72314453 217.70678711 C321.72083258 218.92506274 322.71959364 220.14246018 323.71923828 221.35913086 C330.44763251 229.56326574 336.98089418 237.89189576 343.39501953 246.34350586 C346.26570627 250.12130913 349.18226934 253.86128476 352.109375 257.59545898 C357.7194714 264.75521335 363.15585596 271.99469556 368.39501953 279.42944336 C374.1291356 287.93631001 374.1291356 287.93631001 380.72314453 295.70678711 C383.5483479 296.07149132 386.36130304 296.3783452 389.19580078 296.65209961 C391.03920279 296.8394277 392.88254304 297.02736427 394.72583008 297.21582031 C395.71078461 297.31545074 396.69573914 297.41508118 397.71054077 297.51773071 C442.39599013 302.08139825 486.81543467 308.88307007 530.70637512 318.4785614 C533.76952995 319.13907232 536.57942085 319.70678711 539.72314453 319.70678711 C547.86814301 286.74517176 554.26688591 253.50349786 557.72314453 219.70678711 C557.82626953 218.75223633 557.92939453 217.79768555 558.03564453 216.81420898 C559.03163078 206.16427034 558.94512358 195.4596785 558.96337891 184.77270508 C558.97302423 181.3741755 559.0041004 177.97626775 559.03564453 174.57788086 C559.20790068 139.09069803 554.09934908 97.04966472 528.43847656 70.09472656 C517.28216664 59.04498333 501.52269441 52.12971961 485.72314453 51.70678711 C484.99740234 51.66811523 484.27166016 51.62944336 483.52392578 51.58959961 C456.45026695 50.78410232 429.21149502 61.19572557 405.66357422 73.68579102 Z M239.31298828 209.85131836 C234.95282953 214.25270793 231.05789592 218.92412849 227.17626953 223.74975586 C224.61818211 226.83331029 221.9524634 229.77605124 219.22314453 232.70678711 C215.04338176 237.20928651 211.07142007 241.83089931 207.21923828 246.61694336 C205.3321643 248.95289878 203.42973725 251.27047408 201.50830078 253.57788086 C193.77879898 262.87038512 186.31615253 272.32584737 179.04638672 281.98217773 C177.85227283 283.53849148 176.60688703 285.05513776 175.35595703 286.56616211 C173.52098444 288.52310723 173.52098444 288.52310723 173.72314453 290.70678711 C174.43776855 290.67649414 175.15239258 290.64620117 175.88867188 290.61499023 C220.3840338 288.83325697 265.23148908 288.82078232 309.72314453 290.70678711 C304.36782665 279.63610538 294.99179241 270.00595608 287.23193359 260.54760742 C285.9099126 258.93465624 284.59341377 257.31718218 283.27783203 255.69897461 C277.99257513 249.20132903 272.60805603 242.79218737 267.17773438 236.41577148 C266.19775151 235.26439853 265.21893308 234.11203357 264.24121094 232.95874023 C258.77482821 226.51093787 253.26238426 220.1070793 247.59814453 213.83178711 C246.90591797 213.05436157 246.90591797 213.05436157 246.19970703 212.26123047 C245.08275671 211.03683256 243.90771886 209.86588672 242.72314453 208.70678711 C240.67926294 208.49672455 240.67926294 208.49672455 239.31298828 209.85131836 Z M169.73272705 343.3394165 C163.61235354 343.61574552 157.51319952 343.75730371 151.38720703 343.75756836 C139.47628799 343.34444839 139.47628799 343.34444839 129.30908203 348.46850586 C126.90999885 351.53060208 125.36117448 354.85096874 123.81640625 358.40307617 C121.77981137 362.69456998 118.99773669 366.52613222 116.34814453 370.45678711 C115.22945671 372.17417254 114.11487687 373.89424078 113.00439453 375.61694336 C112.45525391 376.46788574 111.90611328 377.31882812 111.34033203 378.19555664 C97.51759415 399.66003155 84.39021583 421.54164088 71.72314453 443.70678711 C71.23168945 444.56353027 70.74023438 445.42027344 70.23388672 446.30297852 C61.08343621 462.27158134 52.33287263 478.4424106 43.72314453 494.70678711 C43.15611816 495.77622559 42.5890918 496.84566406 42.00488281 497.94750977 C38.53101062 504.51040864 35.10089768 511.09391146 31.72314453 517.70678711 C31.12638916 518.86597656 31.12638916 518.86597656 30.51757812 520.04858398 C29.46281142 522.11331152 28.43182659 524.18778818 27.41064453 526.26928711 C26.85763672 527.38432617 26.30462891 528.49936523 25.73486328 529.64819336 C23.80674571 535.47721288 26.14112053 540.00586191 28.73178101 545.22825623 C29.14787628 546.04617142 29.56397156 546.86408661 29.99267578 547.70678711 C30.42488434 548.57114883 30.8570929 549.43551056 31.30239868 550.32606506 C32.70493186 553.12403337 34.11961449 555.91562825 35.53564453 558.70678711 C36.50662387 560.63303982 37.47740789 562.559391 38.44799805 564.48583984 C44.51127185 576.48941218 50.67510257 588.41947622 57.27783203 600.13696289 C58.89735805 603.0165458 60.49817204 605.90614001 62.09814453 608.79663086 C69.74187634 622.57306293 77.60861181 636.2025544 85.72314453 649.70678711 C86.28501465 650.64232422 86.84688477 651.57786133 87.42578125 652.54174805 C95.97025154 666.73834326 104.70781338 680.80426759 113.72314453 694.70678711 C114.27923401 695.56602783 114.27923401 695.56602783 114.84655762 696.44262695 C117.26469127 700.17699159 119.69551145 703.90266179 122.14123535 707.61901855 C122.94045587 708.8359969 123.73664538 710.05497164 124.52966309 711.27600098 C125.63972314 712.98285488 126.76320546 714.68095659 127.88720703 716.37866211 C128.53125488 717.35931641 129.17530273 718.3399707 129.83886719 719.3503418 C132.11396739 722.19554355 134.06587231 723.40310902 137.65722656 724.06118774 C138.68372314 724.13446793 138.68372314 724.13446793 139.73095703 724.20922852 C140.93413574 724.29904999 140.93413574 724.29904999 142.16162109 724.39068604 C143.04817383 724.44601501 143.93472656 724.50134399 144.84814453 724.55834961 C145.81204102 724.62237976 146.7759375 724.68640991 147.76904297 724.75238037 C151.08631986 724.9620361 154.40421711 725.15015976 157.72314453 725.33178711 C158.89651367 725.39682434 160.06988281 725.46186157 161.27880859 725.52886963 C215.84134422 728.41729455 271.1007227 728.30849198 325.66064453 725.39428711 C327.37948853 725.30627838 327.37948853 725.30627838 329.13305664 725.2164917 C332.25710078 725.04897232 335.37857661 724.85910496 338.50048828 724.65600586 C339.82257545 724.58075432 339.82257545 724.58075432 341.17137146 724.50398254 C345.74539714 724.16291422 349.04317893 723.68942498 352.72314453 720.70678711 C354.50894065 718.61248889 354.50894065 718.61248889 356.00048828 716.15600586 C356.58886475 715.24165771 357.17724121 714.32730957 357.78344727 713.38525391 C358.40292236 712.39823486 359.02239746 711.41121582 359.66064453 710.39428711 C360.31814697 709.36537354 360.97564941 708.33645996 361.65307617 707.27636719 C363.01967507 705.13507313 364.38152874 702.99074367 365.73876953 700.84350586 C367.56513486 697.95655436 369.40603546 695.07968911 371.25439453 692.20678711 C385.68911233 669.73099011 399.54456958 646.94157384 412.72314453 623.70678711 C413.6005127 622.1625708 413.6005127 622.1625708 414.49560547 620.5871582 C423.84209835 604.10699241 432.94166754 587.49500961 441.72314453 570.70678711 C442.10049744 569.98662415 442.47785034 569.26646118 442.86663818 568.5244751 C445.2865605 563.89972639 447.68336237 559.2639154 450.05502319 554.61422729 C450.82847881 553.10294065 451.60724385 551.59435855 452.39151001 550.08865356 C453.48661208 547.98203267 454.56037767 545.86580059 455.62939453 543.74584961 C455.95876511 543.12202896 456.28813568 542.49820831 456.62748718 541.85548401 C458.68002697 537.71003113 458.99434375 535.14397753 457.72314453 530.70678711 C456.88438002 528.38855562 456.88438002 528.38855562 455.78955078 526.19506836 C455.39364746 525.36563721 454.99774414 524.53620605 454.58984375 523.68164062 C454.15945801 522.80306396 453.72907227 521.9244873 453.28564453 521.01928711 C452.83463379 520.08721436 452.38362305 519.1551416 451.91894531 518.19482422 C447.87126949 509.88884691 443.61276509 501.70489618 439.24853516 493.56176758 C437.8086817 490.8668818 436.37825846 488.16714849 434.95088196 485.46563721 C426.80776328 470.05474039 418.50504702 454.76550633 409.72314453 439.70678711 C408.71563381 437.96926119 407.70813201 436.23173009 406.70083618 434.49407959 C398.78632831 420.85094774 390.75946058 407.30492071 382.21972656 394.04077148 C380.03520808 390.63392047 377.88012792 387.20881004 375.73022461 383.7800293 C374.55614679 381.93530622 373.35908084 380.10501996 372.13989258 378.28979492 C368.84306372 373.34302593 366.18578411 368.60482047 363.96533203 363.08178711 C360.89709608 356.20659084 357.6434427 349.37002157 350.72314453 345.70678711 C337.5392561 341.41875828 322.33957419 342.50213702 308.65722656 342.66186523 C303.5513786 342.7201421 298.47551907 342.61307066 293.37548828 342.37866211 C284.49189372 341.98383848 275.61464954 341.80965836 266.72314453 341.70678711 C265.81918945 341.69583008 264.91523437 341.68487305 263.98388672 341.67358398 C232.53343439 341.31024203 201.15153055 341.87467453 169.73272705 343.3394165 Z M418.72314453 352.70678711 C423.24638412 360.56715322 427.93373381 368.2958413 432.78564453 375.95678711 C448.971956 401.70856169 463.76424154 428.30338404 478.10595703 455.1184082 C480.90869982 460.35785162 483.73902201 465.56827369 486.72314453 470.70678711 C489.97322385 468.03970054 491.08327096 464.87303392 492.62158203 461.02319336 C493.02842224 460.01116852 493.02842224 460.01116852 493.44348145 458.97869873 C494.33730122 456.74566962 495.21840257 454.50789667 496.09814453 452.26928711 C496.40383362 451.49813568 496.70952271 450.72698425 497.0244751 449.9324646 C515.23543785 411.17057403 515.23543785 411.17057403 524.72314453 370.70678711 C472.16436192 358.07287816 472.16436192 358.07287816 418.72314453 352.70678711 Z M54.85205078 353.73803711 C54.03917603 353.84943024 53.22630127 353.96082336 52.38879395 354.07559204 C34.11060041 356.6007499 15.92154818 359.42479934 -2.21435547 362.83178711 C-3.08744354 362.99541748 -3.96053162 363.15904785 -4.8600769 363.32763672 C-17.03491718 365.61973668 -29.16286625 368.11344212 -41.27685547 370.70678711 C-38.86510093 380.24283102 -35.76978102 389.5318397 -32.58935547 398.83178711 C-32.31317383 399.64127808 -32.03699219 400.45076904 -31.75244141 401.28479004 C-27.06907833 414.96258121 -22.02953944 428.48810823 -16.77685547 441.95678711 C-16.43828522 442.82837463 -16.09971497 443.69996216 -15.75088501 444.59796143 C-12.28830859 453.48861918 -8.83902586 462.30702633 -4.27685547 470.70678711 C-1.48948922 468.2486211 -0.04273025 465.62061046 1.62158203 462.31616211 C2.17628174 461.2264209 2.73098145 460.13667969 3.30249023 459.01391602 C3.89505615 457.84006348 4.48762207 456.66621094 5.09814453 455.45678711 C11.62949046 442.66940434 18.52473512 430.13270664 25.72314453 417.70678711 C26.37154297 416.58546387 27.01994141 415.46414063 27.68798828 414.30883789 C36.64012936 398.8450173 45.81520215 383.53504717 55.23486328 368.35131836 C58.45002984 363.16742864 61.60197249 357.94772809 64.72314453 352.70678711 C61.40480185 352.70678711 58.13489164 353.28791219 54.85205078 353.73803711 Z M-102.09716797 386.35913086 C-103.25877441 386.71861816 -104.42038086 387.07810547 -105.6171875 387.44848633 C-106.86612793 387.84310059 -108.11506836 388.23771484 -109.40185547 388.64428711 C-110.04556091 388.84652893 -110.68926636 389.04877075 -111.35247803 389.25714111 C-169.66356669 407.58851985 -229.36234285 430.89570897 -274.27685547 473.70678711 C-275.55689453 474.89014648 -275.55689453 474.89014648 -276.86279297 476.09741211 C-288.17344244 486.87285735 -296.54638076 499.20917589 -302.27685547 513.70678711 C-302.63650391 514.60397461 -302.99615234 515.50116211 -303.36669922 516.42553711 C-308.56857019 531.95923475 -305.61636762 549.34532029 -298.65185547 563.70678711 C-268.13500611 623.56160221 -189.85272682 653.29926714 -130.46435547 673.64428711 C-129.28626816 674.0483931 -129.28626816 674.0483931 -128.0843811 674.46066284 C-119.70768813 677.32287089 -111.29730047 680.07315576 -102.82763672 682.64819336 C-102.112061 682.8717601 -101.39648529 683.09532684 -100.65922546 683.32566833 C-96.4906089 684.58176497 -96.4906089 684.58176497 -92.27685547 683.70678711 C-91.17048596 681.04103124 -90.26394863 678.47111446 -89.41357422 675.72241211 C-89.14539886 674.89253281 -88.87722351 674.0626535 -88.60092163 673.20762634 C-88.01901018 671.40638611 -87.44196269 669.60356903 -86.86917114 667.79940796 C-85.33122693 662.96771414 -83.74678524 658.15142126 -82.15966797 653.33569336 C-81.83613846 652.3532515 -81.51260895 651.37080963 -81.17927551 650.3585968 C-76.07182951 634.94603896 -70.22139922 619.81247306 -64.27685547 604.70678711 C-63.97350281 603.93486023 -63.67015015 603.16293335 -63.35760498 602.36761475 C-57.58317108 587.69344225 -51.78981404 573.02594782 -45.18310547 558.70288086 C-44.85258179 557.98442993 -44.52205811 557.265979 -44.18151855 556.52575684 C-42.61401568 553.12901482 -41.02658413 549.74397669 -39.40380859 546.37329102 C-38.84628906 545.18525879 -38.28876953 543.99722656 -37.71435547 542.77319336 C-36.96992187 541.22547241 -36.96992187 541.22547241 -36.21044922 539.64648438 C-34.42029487 534.0096516 -36.56490942 529.60381945 -38.90966797 524.42163086 C-39.46644129 523.17580418 -40.02316067 521.9299534 -40.57983398 520.68408203 C-40.8759256 520.0283017 -41.17201721 519.37252136 -41.4770813 518.6968689 C-60.93994971 475.4980745 -79.53082851 430.40408685 -92.27685547 384.70678711 C-96.10298031 384.70678711 -98.48800724 385.23702848 -102.09716797 386.35913086 Z M575.72314453 384.70678711 C575.42770752 385.64433838 575.13227051 386.58188965 574.82788086 387.54785156 C560.82083931 431.87439492 544.07467617 474.98950837 525.43017578 517.56616211 C524.73915771 519.15267578 524.73915771 519.15267578 524.03417969 520.77124023 C523.20226511 522.63398527 522.34054234 524.48392508 521.43945312 526.31420898 C521.06256348 527.08829102 520.68567383 527.86237305 520.29736328 528.65991211 C519.80175903 529.62912598 519.80175903 529.62912598 519.29614258 530.61791992 C517.82999915 535.96275297 520.51426354 540.98956895 522.71533203 545.78100586 C523.01682663 546.45322174 523.31832123 547.12543762 523.62895203 547.81802368 C524.27625954 549.26074943 524.92640666 550.70220391 525.57913208 552.14248657 C527.31866002 555.98647291 529.03029248 559.84283697 530.74267578 563.69897461 C531.2587867 564.86010521 531.2587867 564.86010521 531.7853241 566.04469299 C536.7107927 577.15344535 541.28672195 588.39466661 545.72314453 599.70678711 C545.97777466 600.35508484 546.23240479 601.00338257 546.49475098 601.67132568 C552.69963237 617.49135797 558.65238819 633.37848325 564.06689453 649.48803711 C564.42983109 650.56639832 564.79276764 651.64475952 565.16670227 652.75579834 C566.95865462 658.09269826 568.7321109 663.43494934 570.48168945 668.78588867 C571.12838938 670.73354336 571.77527153 672.68113756 572.42236328 674.62866211 C572.71240234 675.53410767 573.00244141 676.43955322 573.30126953 677.37243652 C573.57672607 678.19530151 573.85218262 679.0181665 574.13598633 679.8659668 C574.4890107 680.94766144 574.4890107 680.94766144 574.84916687 682.0512085 C575.67318617 684.07420695 575.67318617 684.07420695 578.72314453 684.70678711 C581.10725774 684.14122716 583.36303657 683.50225858 585.68798828 682.74975586 C586.38445465 682.53152664 587.08092102 682.31329742 587.79849243 682.0884552 C590.0891437 681.36694702 592.3750122 680.63152862 594.66064453 679.89428711 C596.25365258 679.38579372 597.84667025 678.87733047 599.43969727 678.36889648 C662.24925286 658.22097504 748.88793566 627.74528412 781.70947266 564.81567383 C789.44719742 548.87646218 791.80178589 531.33032347 785.98120117 514.34960938 C768.6775851 467.92028491 716.75025932 438.93186853 674.24755859 419.08374023 C649.87023379 407.99294761 624.78551753 398.91292133 599.34814453 390.58178711 C598.61954224 390.34127625 597.89093994 390.10076538 597.14025879 389.85296631 C595.05848808 389.16835834 592.97357242 388.49443211 590.88720703 387.82397461 C589.69562988 387.43838379 588.50405273 387.05279297 587.27636719 386.65551758 C583.39149557 385.61823497 579.71795053 385.12027012 575.72314453 384.70678711 Z M-4.27685547 597.70678711 C-9.16101617 607.85382984 -13.32422538 618.19345168 -17.33935547 628.70678711 C-17.65956665 629.54173706 -17.97977783 630.37668701 -18.30969238 631.23693848 C-23.22949689 644.07975036 -27.96003014 656.98440368 -32.52685547 669.95678711 C-32.79893829 670.72684082 -33.07102112 671.49689453 -33.35134888 672.2902832 C-36.30901579 680.68208114 -39.11787245 689.06621205 -41.27685547 697.70678711 C-28.68094965 701.38246514 -15.92826694 703.8101906 -3.02685547 706.14428711 C-1.95857513 706.33932831 -0.8902948 706.53436951 0.21035767 706.73532104 C14.40890979 709.32271518 28.62157853 711.73696842 42.91064453 713.76928711 C43.6366687 713.87328827 44.36269287 713.97728943 45.11071777 714.08444214 C51.33232376 714.96716038 57.42058155 715.8248971 63.72314453 715.70678711 C62.00900995 710.5951762 59.063637 706.32725008 56.16064453 701.83178711 C55.06176813 700.10990893 53.96412195 698.38724506 52.86767578 696.66381836 C52.32836426 695.8164209 51.78905273 694.96902344 51.23339844 694.09594727 C47.61337415 688.36921632 44.16104336 682.54406636 40.72314453 676.70678711 C40.22089355 675.85552246 39.71864258 675.00425781 39.20117188 674.12719727 C28.77126029 656.42375419 18.55098977 638.59937019 8.83642578 620.49194336 C8.51656708 619.89589294 8.19670837 619.29984253 7.86715698 618.68572998 C6.32257832 615.80430662 4.78405379 612.91983326 3.25244141 610.03149414 C2.70265625 609.00008301 2.15287109 607.96867188 1.58642578 606.90600586 C1.10471924 605.99681396 0.6230127 605.08762207 0.12670898 604.15087891 C-1.19492322 601.84945954 -2.63515891 599.78841345 -4.27685547 597.70678711 Z M486.72314453 597.70678711 C486.36712158 598.40425049 486.01109863 599.10171387 485.64428711 599.8203125 C477.88549848 614.98674036 469.92524978 629.98770647 461.42236328 644.75415039 C459.63010542 647.86845593 457.84820669 650.98855322 456.06689453 654.10913086 C445.49757932 672.57972555 434.73444445 690.94872353 422.92138672 708.65820312 C420.53779705 711.90455514 420.53779705 711.90455514 419.72314453 715.70678711 C431.4138996 715.16217913 442.81052712 713.4548159 454.34814453 711.58178711 C455.30025818 711.42916412 456.25237183 711.27654114 457.2333374 711.11929321 C474.97802557 708.27051458 492.62823061 705.00421564 510.23583984 701.4074707 C512.44988008 700.96261664 514.66777691 700.53624062 516.89013672 700.13500977 C518.2576709 699.88630127 518.2576709 699.88630127 519.65283203 699.63256836 C520.4261084 699.49890869 521.19938477 699.36524902 521.99609375 699.22753906 C522.56602051 699.05569092 523.13594727 698.88384277 523.72314453 698.70678711 C525.06093521 696.03120575 524.23153565 694.61886104 523.33872986 691.88504028 C523.11238358 691.2190683 522.88603729 690.55309631 522.65283203 689.86694336 C522.42056412 689.16600555 522.1882962 688.46506775 521.94898987 687.7428894 C521.17404959 685.41534959 520.38689831 683.09217954 519.59814453 680.76928711 C519.19415939 679.56938644 519.19415939 679.56938644 518.78201294 678.34524536 C511.0341269 655.34427079 502.59819099 632.59676361 493.53564453 610.08178711 C493.07794678 608.93701904 492.62024902 607.79225098 492.14868164 606.61279297 C491.72594971 605.57904541 491.30321777 604.54529785 490.86767578 603.48022461 C490.50005127 602.5770752 490.13242676 601.67392578 489.75366211 600.7434082 C488.89513982 598.54438211 488.89513982 598.54438211 486.72314453 597.70678711 Z M-56.27685547 749.70678711 C-62.66989461 774.86832921 -67.92051451 800.11310879 -71.52685547 825.83178711 C-71.67791748 826.90686523 -71.82897949 827.98194336 -71.98461914 829.08959961 C-72.45550803 832.62511734 -72.87683794 836.16251252 -73.27685547 839.70678711 C-73.36405853 840.47665955 -73.4512616 841.24653198 -73.54110718 842.03973389 C-75.09327952 856.12484865 -75.62072422 870.09850938 -75.5925293 884.26489258 C-75.58936418 887.5726815 -75.61297337 890.87957596 -75.63818359 894.18725586 C-75.74836881 931.18549795 -70.34438553 973.03686395 -43.27685547 1000.70678711 C-36.65852629 1006.47144774 -29.48767391 1010.645126 -21.27685547 1013.70678711 C-20.44669922 1014.02647461 -19.61654297 1014.34616211 -18.76123047 1014.67553711 C14.55683987 1025.19703301 53.01291495 1008.25568512 82.1796875 993.46069336 C102.17663419 983.05494588 120.80906743 970.33366238 138.72314453 956.70678711 C139.92725807 955.80142203 141.13166248 954.89644362 142.33642578 953.99194336 C148.95335406 948.99406105 155.31910723 943.7403963 161.61376953 938.34741211 C164.39529264 935.9696033 167.23890803 933.6782926 170.09814453 931.39428711 C176.03202333 926.5692207 181.55800188 921.33850823 187.11767578 916.09350586 C190.94282528 912.48641714 194.84146171 908.97059683 198.77001953 905.47631836 C200.47501758 903.93159012 202.11461204 902.35095165 203.72314453 900.70678711 C202.44123368 896.957681 201.07129293 894.7513515 198.16064453 892.08178711 C194.98765815 889.03435055 192.16161969 885.89055826 189.41064453 882.45678711 C186.14991606 878.39350413 182.77098604 874.51604204 179.22314453 870.70678711 C175.04335529 866.20431469 171.07141817 861.58267253 167.21923828 856.79663086 C165.3321643 854.46067543 163.42973725 852.14310013 161.50830078 849.83569336 C154.47471288 841.38079006 147.65479359 832.80288543 141.01611328 824.03491211 C138.16111018 820.26716666 135.25617056 816.54080254 132.33935547 812.82080078 C127.60397668 806.77851385 122.91525786 800.71903722 118.47314453 794.45678711 C117.71686768 793.41949463 116.96059082 792.38220215 116.18139648 791.31347656 C114.52938572 788.98321644 113.15691525 786.67008488 111.89794922 784.1081543 C109.34304504 779.27397467 106.65071516 774.89074586 101.40710449 772.7701416 C94.47104132 771.01124812 87.33772182 770.68139442 80.22314453 770.20678711 C77.92624259 770.00319621 75.63000386 769.79199096 73.33447266 769.57348633 C68.68051165 769.13303874 64.02542675 768.71734532 59.36767578 768.3190918 C49.93962108 767.48371599 40.58588659 766.20370243 31.22314453 764.83178711 C30.38500214 764.71119934 29.54685974 764.59061157 28.68331909 764.46636963 C6.48974041 761.26205048 -15.65195197 757.29765933 -37.57421875 752.57495117 C-38.43696915 752.38941681 -39.29971954 752.20388245 -40.18861389 752.01272583 C-41.82793712 751.65751589 -43.46623402 751.29752217 -45.10325623 750.93185425 C-48.89888808 750.10576459 -52.36412044 749.48803562 -56.27685547 749.70678711 Z M525.69189453 751.46459961 C523.8502453 751.84407172 522.00852675 752.22320758 520.16674805 752.60205078 C518.7149968 752.90301163 518.7149968 752.90301163 517.23391724 753.21005249 C488.98789931 759.04294953 460.70119988 763.73805738 432.10824585 767.49795532 C430.11141498 767.76087257 428.11484851 768.02580616 426.11856079 768.29281616 C416.80780066 769.53600685 407.53718886 770.76036621 398.15283203 771.25756836 C386.43816185 771.33456465 386.43816185 771.33456465 376.37548828 776.33178711 C374.06377813 779.17075953 372.47190075 782.28242278 370.87109375 785.56030273 C368.68037642 789.65659937 365.77092843 793.26152247 362.97314453 796.95678711 C361.77336289 798.58006914 360.57414787 800.20377011 359.37548828 801.82788086 C354.14449993 808.84779163 348.76167451 815.74814309 343.35302734 822.6315918 C341.80355185 824.60441111 340.25869942 826.58075012 338.71533203 828.55834961 C330.94802961 838.49900428 322.98374782 848.26027689 314.80908203 857.86889648 C311.8972654 861.29719456 309.04550976 864.76653026 306.22314453 868.26928711 C302.10443941 873.3327848 297.73912105 878.12498871 293.30517578 882.90991211 C288.58684195 888.02084558 284.00665795 893.22388994 279.72314453 898.70678711 C282.83924835 905.80457914 289.69920072 910.77709272 295.46923828 915.73413086 C297.68277166 917.6714521 299.84518168 919.65778847 302.0012207 921.65869141 C307.15738719 926.44075894 312.42246325 931.0061151 317.90673828 935.41381836 C320.3624043 937.41309152 322.76294546 939.46300559 325.15405273 941.53857422 C333.21282763 948.50144601 341.73765569 954.78136698 350.37255859 961.00756836 C352.53747508 962.57256823 354.68992588 964.15319718 356.84033203 965.73803711 C386.69322114 987.52110082 420.5279674 1006.25755616 456.72314453 1014.70678711 C457.68865234 1014.95041992 458.65416016 1015.19405273 459.64892578 1015.44506836 C478.21446761 1019.39461199 499.60135626 1018.27238369 516.10595703 1008.45288086 C539.21387714 993.03610431 549.55689126 968.06588638 554.97314453 941.70678711 C555.12428711 940.97363281 555.27542969 940.24047852 555.43115234 939.48510742 C558.61575161 922.71384311 559.12893009 905.98135676 559.09814453 888.95678711 C559.09760071 887.82016632 559.09705688 886.68354553 559.09649658 885.51248169 C559.05098461 864.68747599 557.75220117 844.30494484 554.72314453 823.70678711 C554.56332092 822.61222198 554.56332092 822.61222198 554.40026855 821.49554443 C549.11241173 785.12998695 549.11241173 785.12998695 539.72314453 749.70678711 C534.87014078 749.4313265 530.40841346 750.46730948 525.69189453 751.46459961 Z M173.72314453 778.70678711 C175.87328487 782.57773641 177.92392372 786.2258038 180.78955078 789.61694336 C181.35174316 790.28943115 181.91393555 790.96191895 182.49316406 791.65478516 C183.08468262 792.3525708 183.67620117 793.05035645 184.28564453 793.76928711 C185.54610496 795.27597473 186.80520317 796.78380292 188.06298828 798.29272461 C188.99473877 799.4098584 188.99473877 799.4098584 189.9453125 800.54956055 C192.47397701 803.61784943 194.91462132 806.75040667 197.34814453 809.89428711 C201.54069327 815.29033125 205.91056837 820.50527838 210.38598633 825.66845703 C213.38266813 829.12788677 216.29901204 832.63367012 219.16064453 836.20678711 C223.28810715 841.30186001 227.70416956 846.08779284 232.20727539 850.84936523 C235.20596555 854.02719792 238.04640944 857.24582696 240.72314453 860.70678711 C244.23996569 859.23097823 246.22528929 857.31418212 248.72314453 854.45678711 C249.51076172 853.55959961 250.29837891 852.66241211 251.10986328 851.73803711 C251.98192546 850.72845615 252.85297755 849.71800201 253.72314453 848.70678711 C254.18285645 848.1744043 254.64256836 847.64202148 255.11621094 847.09350586 C257.62459218 844.18592855 260.12302845 841.27011223 262.61376953 838.34741211 C264.65516899 835.95254574 266.70702872 833.56745139 268.77001953 831.19116211 C274.15734847 824.97461132 279.39007668 818.67880305 284.42944336 812.17651367 C288.17879145 807.35275958 292.06505792 802.65237796 295.97314453 797.95678711 C304.61180866 789.04474814 304.61180866 789.04474814 309.72314453 778.70678711 C308.99273956 778.7215358 308.26233459 778.73628448 307.50979614 778.7514801 C297.95619888 778.94156088 288.40234295 779.11244139 278.84814453 779.26928711 C277.685779 779.28838701 277.685779 779.28838701 276.49993134 779.30787277 C251.77313618 779.70786682 227.07429637 779.70416918 202.34814453 779.26928711 C201.61884987 779.25647327 200.88955521 779.24365944 200.13816071 779.23045731 C191.33277453 779.07411404 182.52780002 778.90019661 173.72314453 778.70678711 Z " fill="#4e8ef7" transform="translate(358.27685546875,-0.706787109375)"/>
<path d="M0 0 C1.18335938 0.96486328 1.18335938 0.96486328 2.390625 1.94921875 C21.69356763 18.3688602 35.13612377 42.77122843 38 68 C40.04763111 100.25713894 33.62391778 129.36824403 12 154 C10.98292969 155.28970703 10.98292969 155.28970703 9.9453125 156.60546875 C-5.63307684 175.78127731 -32.10021636 186.98312146 -56 190 C-60.25479939 190.28002095 -64.48685201 190.33482683 -68.75 190.3125 C-70.45615479 190.30404053 -70.45615479 190.30404053 -72.19677734 190.29541016 C-97.52564614 189.93187232 -119.27713022 180.76081618 -139 165 C-139.65613281 164.49855469 -140.31226563 163.99710938 -140.98828125 163.48046875 C-146.49995534 159.0838 -150.7091636 153.55284711 -155 148 C-155.60972656 147.22914063 -156.21945312 146.45828125 -156.84765625 145.6640625 C-174.22054303 122.47383095 -178.54762416 93.41933595 -175.71582031 65.16455078 C-171.76006308 38.30676208 -156.25691172 13.61454859 -135 -2.9375 C-94.02432045 -31.77223746 -39.23750522 -33.04577124 0 0 Z " fill="#4e8ef7" transform="translate(669,451)"/>
</svg>
